<svg
  width="200"
  height="50"
  viewBox="0 0 710 210"
  fill="none"
  xmlns="http://www.w3.org/2000/svg"
>
<path
    d="M53.55 160H4.8V147.1L17.85 141.1V71.8L4.8 65.8V52.9H53.55V65.8L40.5 71.8V141.1L53.55 147.1V160ZM150.333 88.832C158.269 88.832 164.242 90.88 168.253 94.976C172.349 98.9867 174.397 105.472 174.397 114.432V160H155.325V119.168C155.325 114.133 154.471 110.379 152.765 107.904C151.058 105.344 148.413 104.064 144.829 104.064C139.794 104.064 136.21 105.856 134.077 109.44C131.943 113.024 130.877 118.187 130.877 124.928V160H111.805V119.168C111.805 115.84 111.421 113.067 110.653 110.848C109.885 108.629 108.733 106.965 107.197 105.856C105.661 104.661 103.698 104.064 101.309 104.064C97.8101 104.064 95.0368 104.96 92.9888 106.752C90.9408 108.544 89.4901 111.147 88.6368 114.56C87.7834 117.973 87.3568 122.155 87.3568 127.104V160H68.2848V90.112H82.8768L85.4368 99.072H86.4608C87.9115 96.6827 89.7035 94.7627 91.8368 93.312C93.9701 91.776 96.3168 90.6667 98.8768 89.984C101.522 89.216 104.167 88.832 106.813 88.832C111.933 88.832 116.285 89.6853 119.869 91.392C123.453 93.0133 126.183 95.5733 128.061 99.072H129.725C131.858 95.488 134.802 92.8853 138.557 91.264C142.397 89.6427 146.322 88.832 150.333 88.832ZM232.947 88.832C240.797 88.832 247.155 91.904 252.019 98.048C256.883 104.107 259.315 113.067 259.315 124.928C259.315 132.864 258.163 139.563 255.859 145.024C253.555 150.4 250.397 154.453 246.387 157.184C242.376 159.915 237.725 161.28 232.435 161.28C229.107 161.28 226.205 160.853 223.731 160C221.341 159.147 219.293 158.037 217.587 156.672C215.88 155.307 214.387 153.856 213.107 152.32H212.083C212.424 153.941 212.68 155.648 212.851 157.44C213.021 159.147 213.107 160.853 213.107 162.56V190.72H194.035V90.112H209.523L212.211 99.2H213.107C214.387 97.3227 215.923 95.616 217.715 94.08C219.507 92.4587 221.64 91.1787 224.115 90.24C226.675 89.3013 229.619 88.832 232.947 88.832ZM226.803 104.064C223.475 104.064 220.829 104.747 218.867 106.112C216.904 107.477 215.453 109.568 214.515 112.384C213.661 115.115 213.192 118.571 213.107 122.752V124.8C213.107 129.323 213.533 133.163 214.387 136.32C215.24 139.392 216.691 141.739 218.739 143.36C220.787 144.981 223.56 145.792 227.059 145.792C229.96 145.792 232.349 144.981 234.227 143.36C236.104 141.739 237.512 139.349 238.451 136.192C239.389 133.035 239.859 129.195 239.859 124.672C239.859 117.845 238.792 112.725 236.659 109.312C234.611 105.813 231.325 104.064 226.803 104.064ZM303.835 88.832C310.32 88.832 315.867 90.0693 320.475 92.544C325.168 95.0187 328.795 98.6027 331.355 103.296C333.915 107.989 335.195 113.749 335.195 120.576V129.792H290.139C290.309 135.168 291.888 139.392 294.875 142.464C297.947 145.536 302.171 147.072 307.547 147.072C312.069 147.072 316.165 146.645 319.835 145.792C323.504 144.853 327.301 143.445 331.227 141.568V156.288C327.813 157.995 324.187 159.232 320.347 160C316.592 160.853 312.027 161.28 306.651 161.28C299.653 161.28 293.467 160 288.091 157.44C282.715 154.795 278.491 150.827 275.419 145.536C272.347 140.245 270.811 133.589 270.811 125.568C270.811 117.376 272.176 110.592 274.907 105.216C277.723 99.7547 281.605 95.6587 286.555 92.928C291.504 90.1973 297.264 88.832 303.835 88.832ZM303.963 102.4C300.293 102.4 297.221 103.595 294.747 105.984C292.357 108.373 290.949 112.085 290.523 117.12H317.275C317.275 114.304 316.763 111.787 315.739 109.568C314.8 107.349 313.349 105.6 311.387 104.32C309.424 103.04 306.949 102.4 303.963 102.4ZM389.7 88.832C390.638 88.832 391.748 88.8747 393.028 88.96C394.308 89.0453 395.332 89.1733 396.1 89.344L394.692 107.264C394.094 107.093 393.198 106.965 392.004 106.88C390.894 106.709 389.913 106.624 389.06 106.624C386.585 106.624 384.196 106.965 381.892 107.648C379.588 108.245 377.497 109.227 375.62 110.592C373.828 111.957 372.377 113.792 371.268 116.096C370.244 118.315 369.732 121.088 369.732 124.416V160H350.66V90.112H365.124L367.94 101.888H368.836C370.201 99.4987 371.908 97.3227 373.956 95.36C376.004 93.3973 378.35 91.8187 380.996 90.624C383.726 89.4293 386.628 88.832 389.7 88.832ZM427.857 90.112V160H408.785V90.112H427.857ZM418.385 62.72C421.201 62.72 423.633 63.4027 425.681 64.768C427.729 66.048 428.753 68.48 428.753 72.064C428.753 75.5627 427.729 77.9947 425.681 79.36C423.633 80.7253 421.201 81.408 418.385 81.408C415.483 81.408 413.009 80.7253 410.961 79.36C408.998 77.9947 408.017 75.5627 408.017 72.064C408.017 68.48 408.998 66.048 410.961 64.768C413.009 63.4027 415.483 62.72 418.385 62.72ZM511.913 90.112V160H497.321L494.761 151.04H493.737C492.286 153.429 490.409 155.392 488.105 156.928C485.886 158.379 483.411 159.445 480.681 160.128C477.95 160.896 475.134 161.28 472.233 161.28C467.283 161.28 462.931 160.384 459.177 158.592C455.422 156.8 452.521 154.027 450.473 150.272C448.425 146.517 447.401 141.653 447.401 135.68V90.112H466.473V130.944C466.473 135.893 467.369 139.648 469.161 142.208C470.953 144.768 473.811 146.048 477.737 146.048C481.662 146.048 484.691 145.152 486.825 143.36C489.043 141.568 490.579 138.965 491.433 135.552C492.371 132.139 492.841 127.957 492.841 123.008V90.112H511.913ZM613.958 88.832C621.894 88.832 627.867 90.88 631.878 94.976C635.974 98.9867 638.022 105.472 638.022 114.432V160H618.95V119.168C618.95 114.133 618.096 110.379 616.39 107.904C614.683 105.344 612.038 104.064 608.454 104.064C603.419 104.064 599.835 105.856 597.702 109.44C595.568 113.024 594.502 118.187 594.502 124.928V160H575.43V119.168C575.43 115.84 575.046 113.067 574.278 110.848C573.51 108.629 572.358 106.965 570.822 105.856C569.286 104.661 567.323 104.064 564.934 104.064C561.435 104.064 558.662 104.96 556.614 106.752C554.566 108.544 553.115 111.147 552.262 114.56C551.408 117.973 550.982 122.155 550.982 127.104V160H531.91V90.112H546.502L549.062 99.072H550.086C551.536 96.6827 553.328 94.7627 555.462 93.312C557.595 91.776 559.942 90.6667 562.502 89.984C565.147 89.216 567.792 88.832 570.438 88.832C575.558 88.832 579.91 89.6853 583.494 91.392C587.078 93.0133 589.808 95.5733 591.686 99.072H593.35C595.483 95.488 598.427 92.8853 602.182 91.264C606.022 89.6427 609.947 88.832 613.958 88.832Z"
    fill="white"
  />
<path
    d="M469.172 178.344V198H463.808V178.344H469.172ZM466.508 170.64C467.3 170.64 467.984 170.832 468.56 171.216C469.136 171.576 469.424 172.26 469.424 173.268C469.424 174.252 469.136 174.936 468.56 175.32C467.984 175.704 467.3 175.896 466.508 175.896C465.692 175.896 464.996 175.704 464.42 175.32C463.868 174.936 463.592 174.252 463.592 173.268C463.592 172.26 463.868 171.576 464.42 171.216C464.996 170.832 465.692 170.64 466.508 170.64ZM485.937 177.984C488.049 177.984 489.741 178.56 491.013 179.712C492.285 180.84 492.921 182.664 492.921 185.184V198H487.557V186.516C487.557 185.1 487.305 184.044 486.801 183.348C486.297 182.628 485.493 182.268 484.389 182.268C482.757 182.268 481.641 182.832 481.041 183.96C480.441 185.064 480.141 186.66 480.141 188.748V198H474.777V178.344H478.881L479.601 180.864H479.889C480.321 180.192 480.849 179.652 481.473 179.244C482.097 178.812 482.793 178.5 483.561 178.308C484.329 178.092 485.121 177.984 485.937 177.984ZM504.665 198.36C502.481 198.36 500.693 197.508 499.301 195.804C497.933 194.076 497.249 191.544 497.249 188.208C497.249 184.848 497.945 182.304 499.337 180.576C500.729 178.848 502.553 177.984 504.809 177.984C505.745 177.984 506.573 178.116 507.293 178.38C508.013 178.62 508.625 178.956 509.129 179.388C509.657 179.82 510.101 180.312 510.461 180.864H510.641C510.569 180.48 510.485 179.928 510.389 179.208C510.293 178.464 510.245 177.708 510.245 176.94V170.64H515.609V198H511.505L510.461 195.444H510.245C509.909 195.972 509.477 196.464 508.949 196.92C508.445 197.352 507.845 197.7 507.149 197.964C506.453 198.228 505.625 198.36 504.665 198.36ZM506.537 194.076C508.025 194.076 509.069 193.644 509.669 192.78C510.269 191.892 510.581 190.572 510.605 188.82V188.244C510.605 186.324 510.305 184.86 509.705 183.852C509.129 182.844 508.049 182.34 506.465 182.34C505.289 182.34 504.365 182.856 503.693 183.888C503.021 184.896 502.685 186.36 502.685 188.28C502.685 190.2 503.021 191.652 503.693 192.636C504.365 193.596 505.313 194.076 506.537 194.076ZM539.254 178.344V198H535.15L534.43 195.48H534.142C533.734 196.152 533.206 196.704 532.558 197.136C531.934 197.544 531.238 197.844 530.47 198.036C529.702 198.252 528.91 198.36 528.094 198.36C526.702 198.36 525.478 198.108 524.422 197.604C523.366 197.1 522.55 196.32 521.974 195.264C521.398 194.208 521.11 192.84 521.11 191.16V178.344H526.474V189.828C526.474 191.22 526.726 192.276 527.23 192.996C527.734 193.716 528.538 194.076 529.642 194.076C530.746 194.076 531.598 193.824 532.198 193.32C532.822 192.816 533.254 192.084 533.494 191.124C533.758 190.164 533.89 188.988 533.89 187.596V178.344H539.254ZM558.594 192.168C558.594 193.488 558.282 194.616 557.658 195.552C557.034 196.464 556.098 197.16 554.85 197.64C553.602 198.12 552.054 198.36 550.206 198.36C548.838 198.36 547.662 198.264 546.678 198.072C545.694 197.904 544.71 197.616 543.726 197.208V192.78C544.782 193.26 545.922 193.656 547.146 193.968C548.37 194.28 549.45 194.436 550.386 194.436C551.442 194.436 552.186 194.28 552.618 193.968C553.074 193.656 553.302 193.248 553.302 192.744C553.302 192.408 553.206 192.108 553.014 191.844C552.846 191.58 552.462 191.28 551.862 190.944C551.262 190.608 550.326 190.176 549.054 189.648C547.83 189.12 546.822 188.604 546.03 188.1C545.238 187.572 544.65 186.948 544.266 186.228C543.882 185.484 543.69 184.56 543.69 183.456C543.69 181.632 544.398 180.264 545.814 179.352C547.23 178.44 549.114 177.984 551.466 177.984C552.69 177.984 553.854 178.104 554.958 178.344C556.062 178.584 557.202 178.98 558.378 179.532L556.758 183.384C556.11 183.096 555.486 182.844 554.886 182.628C554.286 182.412 553.698 182.244 553.122 182.124C552.57 182.004 551.994 181.944 551.394 181.944C550.602 181.944 550.002 182.052 549.594 182.268C549.21 182.484 549.018 182.808 549.018 183.24C549.018 183.552 549.114 183.84 549.306 184.104C549.522 184.344 549.918 184.608 550.494 184.896C551.094 185.184 551.97 185.568 553.122 186.048C554.25 186.504 555.222 186.984 556.038 187.488C556.854 187.968 557.478 188.58 557.91 189.324C558.366 190.044 558.594 190.992 558.594 192.168ZM571.053 194.076C571.653 194.076 572.229 194.016 572.781 193.896C573.333 193.776 573.885 193.632 574.437 193.464V197.46C573.861 197.7 573.141 197.904 572.277 198.072C571.437 198.264 570.513 198.36 569.505 198.36C568.329 198.36 567.273 198.168 566.337 197.784C565.425 197.4 564.693 196.74 564.141 195.804C563.613 194.844 563.349 193.524 563.349 191.844V182.376H560.793V180.108L563.745 178.308L565.293 174.168H568.713V178.344H574.221V182.376H568.713V191.844C568.713 192.588 568.929 193.152 569.361 193.536C569.793 193.896 570.357 194.076 571.053 194.076ZM589.362 177.984C589.626 177.984 589.938 177.996 590.298 178.02C590.658 178.044 590.946 178.08 591.162 178.128L590.766 183.168C590.598 183.12 590.346 183.084 590.01 183.06C589.698 183.012 589.422 182.988 589.182 182.988C588.486 182.988 587.814 183.084 587.166 183.276C586.518 183.444 585.93 183.72 585.402 184.104C584.898 184.488 584.49 185.004 584.178 185.652C583.89 186.276 583.746 187.056 583.746 187.992V198H578.382V178.344H582.45L583.242 181.656H583.494C583.878 180.984 584.358 180.372 584.934 179.82C585.51 179.268 586.17 178.824 586.914 178.488C587.682 178.152 588.498 177.984 589.362 177.984ZM600.094 178.344V198H594.73V178.344H600.094ZM597.43 170.64C598.222 170.64 598.906 170.832 599.482 171.216C600.058 171.576 600.346 172.26 600.346 173.268C600.346 174.252 600.058 174.936 599.482 175.32C598.906 175.704 598.222 175.896 597.43 175.896C596.614 175.896 595.918 175.704 595.342 175.32C594.79 174.936 594.514 174.252 594.514 173.268C594.514 172.26 594.79 171.576 595.342 171.216C595.918 170.832 596.614 170.64 597.43 170.64ZM613.799 177.984C615.623 177.984 617.183 178.332 618.479 179.028C619.799 179.724 620.819 180.732 621.539 182.052C622.259 183.372 622.619 184.992 622.619 186.912V189.504H609.947C609.995 191.016 610.439 192.204 611.279 193.068C612.143 193.932 613.331 194.364 614.843 194.364C616.115 194.364 617.267 194.244 618.299 194.004C619.331 193.74 620.399 193.344 621.503 192.816V196.956C620.543 197.436 619.523 197.784 618.443 198C617.387 198.24 616.103 198.36 614.591 198.36C612.623 198.36 610.883 198 609.371 197.28C607.859 196.536 606.671 195.42 605.807 193.932C604.943 192.444 604.511 190.572 604.511 188.316C604.511 186.012 604.895 184.104 605.663 182.592C606.455 181.056 607.547 179.904 608.939 179.136C610.331 178.368 611.951 177.984 613.799 177.984ZM613.835 181.8C612.803 181.8 611.939 182.136 611.243 182.808C610.571 183.48 610.175 184.524 610.055 185.94H617.579C617.579 185.148 617.435 184.44 617.147 183.816C616.883 183.192 616.475 182.7 615.923 182.34C615.371 181.98 614.675 181.8 613.835 181.8ZM640.684 192.168C640.684 193.488 640.372 194.616 639.748 195.552C639.124 196.464 638.188 197.16 636.94 197.64C635.692 198.12 634.144 198.36 632.296 198.36C630.928 198.36 629.752 198.264 628.768 198.072C627.784 197.904 626.8 197.616 625.816 197.208V192.78C626.872 193.26 628.012 193.656 629.236 193.968C630.46 194.28 631.54 194.436 632.476 194.436C633.532 194.436 634.276 194.28 634.708 193.968C635.164 193.656 635.392 193.248 635.392 192.744C635.392 192.408 635.296 192.108 635.104 191.844C634.936 191.58 634.552 191.28 633.952 190.944C633.352 190.608 632.416 190.176 631.144 189.648C629.92 189.12 628.912 188.604 628.12 188.1C627.328 187.572 626.74 186.948 626.356 186.228C625.972 185.484 625.78 184.56 625.78 183.456C625.78 181.632 626.488 180.264 627.904 179.352C629.32 178.44 631.204 177.984 633.556 177.984C634.78 177.984 635.944 178.104 637.048 178.344C638.152 178.584 639.292 178.98 640.468 179.532L638.848 183.384C638.2 183.096 637.576 182.844 636.976 182.628C636.376 182.412 635.788 182.244 635.212 182.124C634.66 182.004 634.084 181.944 633.484 181.944C632.692 181.944 632.092 182.052 631.684 182.268C631.3 182.484 631.108 182.808 631.108 183.24C631.108 183.552 631.204 183.84 631.396 184.104C631.612 184.344 632.008 184.608 632.584 184.896C633.184 185.184 634.06 185.568 635.212 186.048C636.34 186.504 637.312 186.984 638.128 187.488C638.944 187.968 639.568 188.58 640 189.324C640.456 190.044 640.684 190.992 640.684 192.168Z"
    fill="white"
  />
</svg>
