<svg width="86" height="78" viewBox="0 0 86 78" fill="none" xmlns="http://www.w3.org/2000/svg">
<g clip-path="url(#clip0_206_2)">
<mask id="path-1-inside-1_206_2" fill="white">
<path fill-rule="evenodd" clip-rule="evenodd" d="M25.5676 1.80088C24.5983 2.25309 23.0209 3.40432 22.0622 4.35941C21.1036 5.31449 19.5514 7.51735 18.6127 9.25499C17.674 10.993 16.6079 13.2414 16.2437 14.2519C15.6895 15.7889 15.6665 16.1378 16.1046 16.3863C16.3924 16.5496 16.8155 16.6855 17.0452 16.6886C17.2745 16.6913 18.1273 15.3573 18.9403 13.7237C19.7529 12.0901 21.0436 10.1645 21.8081 9.44463C22.9838 8.33756 23.4432 8.13559 24.7852 8.13559C26.074 8.13559 26.6619 8.37008 27.9148 9.3837C28.8226 10.1183 29.9914 11.6321 30.7559 13.0637C31.4706 14.4011 32.4006 16.7279 32.8229 18.2342C33.2453 19.7404 33.8515 22.326 34.1703 23.9801C34.489 25.6338 34.9573 29.8756 35.2107 33.406C35.4645 36.9364 35.5547 40.2429 35.4113 40.754C35.1793 41.582 34.9748 41.6834 33.5339 41.682C32.6444 41.6813 30.2827 41.4458 28.2856 41.1589C26.2885 40.8717 23.0243 40.2418 21.0318 39.7588C19.0393 39.2758 16.3637 38.4563 15.0863 37.9376C13.8085 37.4187 12.1329 36.4126 11.3619 35.7016C10.591 34.9909 9.85293 34.1067 9.72221 33.7373C9.59111 33.368 9.58729 32.5734 9.71304 31.972C9.83917 31.3705 10.4274 30.4027 11.0202 29.8211C11.6131 29.2399 12.8163 28.3385 13.6943 27.8182C14.5718 27.2982 15.29 26.6807 15.29 26.4465C15.29 26.212 15.0672 25.8546 14.7947 25.652C14.4289 25.3802 13.5341 25.5818 11.378 26.4212C9.77114 27.0469 7.63987 27.9873 6.64189 28.5111C5.64391 29.0348 4.12152 30.046 3.25922 30.7581C2.39655 31.4701 1.31066 32.7343 0.846258 33.5679C0.352045 34.4542 0.00460522 35.7071 0.0095741 36.5862C0.0141608 37.4125 0.331023 38.7058 0.713244 39.46C1.09585 40.2138 2.39999 41.6419 3.61163 42.634C4.88634 43.6774 7.12654 45.0005 8.92796 45.7745C10.6403 46.5098 13.4172 47.5097 15.0989 47.9962C16.7807 48.4826 20.1347 49.2539 22.5523 49.7102C24.9698 50.1665 28.4358 50.6464 30.254 50.7772C32.0726 50.908 33.7601 51.1253 34.004 51.2602C34.3358 51.4437 34.2872 52.2728 33.8114 54.5469C33.4616 56.2195 32.8294 58.5921 32.4067 59.8197C31.9843 61.0473 31.205 62.8219 30.6748 63.7633C30.1447 64.7047 29.378 65.8566 28.9705 66.3232C28.5627 66.7898 27.7692 67.4436 27.2066 67.776C26.6436 68.1081 25.5642 68.3812 24.8074 68.3823C23.8939 68.384 22.9188 68.0523 21.9059 67.395C21.0669 66.8507 19.9157 65.6953 19.3481 64.8276C18.7801 63.9598 18.1838 63.2498 18.0225 63.2498C17.8612 63.2498 17.4202 63.4521 17.0425 63.6996C16.3908 64.1265 16.418 64.2843 17.5738 66.7702C18.2438 68.2118 19.4368 70.2815 20.2249 71.3697C21.0134 72.458 22.3715 73.9224 23.2433 74.6242C24.1152 75.326 25.4552 76.1349 26.2216 76.4214C26.9876 76.7083 28.2871 76.9428 29.1089 76.9428C29.931 76.9428 31.1962 76.7209 31.9205 76.4498C32.6448 76.1787 33.8488 75.5242 34.5961 74.9949C35.3433 74.466 36.5794 73.2244 37.3435 72.2358C38.1075 71.2475 38.833 70.4492 38.9557 70.4626C39.0784 70.4756 39.9529 71.4334 40.8989 72.5908C41.8824 73.7941 43.3975 75.1247 44.4367 75.6984C45.5395 76.3067 46.9766 76.7634 48.0912 76.8592C49.4446 76.976 50.4525 76.8154 51.9222 76.2489C53.1732 75.7669 54.5584 74.8416 55.6374 73.7667C56.5838 72.8243 57.9471 71.1089 58.6676 69.9552C59.3881 68.8013 60.6644 66.012 61.5037 63.7564C62.3431 61.5009 63.3881 57.9609 63.8257 55.8898C64.2634 53.8188 64.7446 51.5139 64.8955 50.7676C65.1363 49.5774 65.3343 49.374 66.5078 49.1101C67.2435 48.9447 69.3825 48.3488 71.2611 47.7856C73.1397 47.2225 75.9777 46.1747 77.5677 45.4575C79.1578 44.74 81.2661 43.5145 82.253 42.7346C83.2399 41.9545 84.5731 40.4472 85.2152 39.385C86.0122 38.0677 86.1922 37.3143 86.1922 36.3773C86.1922 35.5527 86.0011 35.008 86.0011 35.008C85.7565 34.3528 85.81 34.3234 85.2366 33.4676C84.6633 32.7829 83.4677 31.3527 82.4128 30.5034C81.3089 29.6147 78.7029 28.1773 76.2724 27.1171C73.95 26.1038 71.3077 25.1299 70.4003 24.9523C68.8928 24.6575 68.7235 24.6935 68.4384 25.3685C68.2667 25.7752 68.2025 26.2233 68.295 26.3644C68.3879 26.5054 68.678 26.6211 68.9395 26.6211C69.2009 26.6211 70.7844 27.2143 72.4582 27.939C74.2646 28.7216 76.0041 29.7698 76.7379 30.5185C77.4305 31.225 77.9744 32.1585 77.9744 32.6405C77.9744 33.1143 77.7164 33.9482 77.4015 34.4939C77.0865 35.0395 76.2693 35.8621 75.5859 36.3212C74.9025 36.7806 73.476 37.5453 72.4158 38.0205C71.3559 38.4956 69.4941 39.1433 68.2786 39.4596C67.0631 39.7763 66.017 39.9824 65.9535 39.918C65.8905 39.8533 65.6489 37.0278 65.4169 33.6387C65.1853 30.2497 64.649 25.691 64.2255 23.508C63.8024 21.325 62.929 17.936 62.2854 15.9769C61.6413 14.0177 60.3632 11.0282 59.4451 9.33372C58.5029 7.59471 56.9354 5.41411 55.8468 4.32723C54.7862 3.26808 53.1407 2.07405 52.1905 1.67422C51.2403 1.27404 49.7672 0.946777 48.9175 0.946777C48.0675 0.946777 46.7756 1.16997 46.0467 1.44281C45.3178 1.71564 44.1501 2.32908 43.4514 2.80628C42.7531 3.28348 41.528 4.52372 40.7292 5.56233C39.9303 6.60095 39.1544 7.45094 39.0046 7.45094C38.8552 7.45094 38.1075 6.64237 37.3435 5.65374C36.5794 4.6651 35.3888 3.45636 34.6973 2.96683C34.0059 2.47765 32.891 1.82313 32.2198 1.51195C31.5482 1.20112 30.1734 0.953966 29.1647 0.962867C28.0004 0.972794 26.686 1.27917 25.5676 1.80088ZM47.5335 1.9895C46.873 2.11308 45.7241 2.55125 44.9803 2.96307C44.2365 3.37488 43.0772 4.27348 42.4041 4.95984C41.7314 5.6462 40.8695 6.83065 40.4892 7.59129C40.1085 8.35228 39.8738 9.04343 39.9674 9.12696C40.0611 9.21083 40.5239 8.96435 40.996 8.57924C41.468 8.19378 42.2302 7.70563 42.6892 7.49373C43.1487 7.28183 44.0947 7.1093 44.7914 7.10998C45.4886 7.11067 46.5978 7.40541 47.2568 7.76553C47.9157 8.12532 48.8957 8.93731 49.4347 9.56992C49.9736 10.2029 50.938 11.7225 51.5774 12.947C52.2173 14.1714 53.138 16.6269 53.6238 18.4039C54.394 21.2237 54.6256 21.6646 55.4428 21.8686C56.3789 22.1028 56.3789 22.1028 55.4872 22.1366C54.9547 22.1572 54.6593 22.3434 54.7537 22.5988C54.8641 22.8969 56.148 23.0561 58.9898 23.1239C61.7128 23.1886 63.0678 23.0986 63.0678 22.8528C63.0678 22.6501 62.7998 21.3226 62.4723 19.9026C62.1447 18.4823 61.3539 15.9858 60.7148 14.3542C60.0757 12.7227 58.9348 10.3278 58.1791 9.03282C57.4239 7.73746 55.9558 5.84475 54.9169 4.82668C53.878 3.80895 52.6641 2.80046 52.2192 2.58617C51.7739 2.37153 50.808 2.09904 50.0722 1.98025C49.3364 1.86181 48.194 1.86592 47.5335 1.9895ZM25.5745 2.94732C24.6319 3.48272 23.251 4.55864 22.506 5.33811C21.7611 6.11793 20.7119 7.48962 20.1752 8.38685C19.6382 9.28408 19.0782 10.4035 18.9311 10.8742C18.756 11.4339 19.1222 11.1374 19.9891 10.0184C20.718 9.07698 21.8348 8.037 22.4701 7.70768C23.1057 7.37836 24.2528 7.10861 25.0191 7.10861C25.7855 7.10861 26.9111 7.33968 27.5204 7.62176C28.1296 7.90383 29.0642 8.64668 29.597 9.27244C30.1298 9.89787 31.1553 11.554 31.8758 12.9528C32.5963 14.3512 33.5851 16.8618 34.0732 18.5313C34.7375 20.8043 35.1541 21.6372 35.732 21.8474C36.3814 22.0832 36.3975 22.1308 35.8345 22.1493C35.4664 22.161 35.1656 22.3058 35.1656 22.4704C35.1656 22.6351 35.703 22.8661 36.36 22.9839C37.0171 23.1017 38.9205 23.1979 40.5901 23.1979C43.2985 23.1979 43.6054 23.1332 43.4369 22.5988C43.3333 22.2695 43.1311 21.3065 42.9877 20.4593C42.8448 19.612 42.2118 17.4554 41.5815 15.6667C40.9513 13.8781 39.6678 11.0765 38.7298 9.44053C37.7914 7.8049 36.3268 5.75746 35.4748 4.89069C34.6228 4.02359 33.2655 3.0127 32.4587 2.64402C31.5998 2.25172 30.2242 1.97375 29.1402 1.97375C27.7619 1.97375 26.8503 2.22262 25.5745 2.94732ZM42.9342 8.29271C42.2669 8.55288 41.4439 9.14442 41.1049 9.60758C40.5262 10.3987 40.5488 10.5921 41.4734 12.7922C42.0146 14.0804 42.8735 16.6043 43.3822 18.4009C43.8905 20.197 44.5805 23.1284 44.9153 24.9143C45.2501 26.7002 45.6277 31.2969 45.7543 35.1289C45.9844 42.0962 45.9844 42.0962 50.2916 41.9737C52.6606 41.9066 54.7414 41.7234 54.9154 41.567C55.0896 41.4105 55.21 39.2546 55.1825 36.7761C55.1554 34.2974 54.9299 30.729 54.6814 28.8462C54.433 26.9634 53.8058 23.5207 53.2875 21.1953C52.7696 18.8702 51.8354 15.7828 51.2116 14.3341C50.5878 12.8853 49.5597 11.0693 48.9267 10.2984C48.2937 9.52748 47.1914 8.64873 46.4774 8.34509C45.7631 8.04145 44.947 7.79942 44.6634 7.80661C44.3798 7.81414 43.6016 8.03289 42.9342 8.29271ZM11.2637 27.405C10.2053 27.8213 8.50713 28.6028 7.48927 29.1423C6.4718 29.6818 4.96011 30.6725 4.13031 31.3441C3.3005 32.0158 2.28991 33.1472 1.88475 33.8585C1.47922 34.5699 1.14783 35.7803 1.14783 36.5485C1.14783 37.3167 1.4861 38.5388 1.89928 39.2642C2.31246 39.9895 3.46295 41.2048 4.45596 41.9651C5.44859 42.7251 7.64751 43.9578 9.34228 44.7044C11.0367 45.451 14.3226 46.6077 16.6439 47.2749C18.9647 47.9421 22.5767 48.791 24.6705 49.1614C26.764 49.5318 29.6807 49.9272 31.1522 50.0398C32.6238 50.1528 34.025 50.1288 34.2658 49.9864C34.507 49.8444 34.8671 48.1875 35.0666 46.3047C35.2661 44.422 35.4129 42.8572 35.393 42.8274C35.3731 42.798 33.6367 42.5946 31.5345 42.3762C29.4322 42.1575 25.9922 41.6638 23.89 41.2791C21.7878 40.8946 18.8638 40.197 17.3923 39.7287C15.9207 39.2607 14.0169 38.5175 13.1614 38.0773C12.3064 37.6371 11.0562 36.7731 10.3838 36.1572C9.71151 35.541 8.99561 34.4867 8.79341 33.8137C8.553 33.0143 8.55988 32.1548 8.81252 31.3346C9.07511 30.4829 9.89651 29.5226 11.3658 28.3502C12.5568 27.3992 13.4542 26.6273 13.3598 26.6348C13.265 26.6423 12.3221 26.9891 11.2637 27.405ZM75.5171 28.2482C77.0815 29.1649 78.06 30.0282 78.521 30.8981C78.9686 31.743 79.1306 32.5977 78.99 33.3734C78.8719 34.0249 78.3264 35.0854 77.7776 35.73C77.2287 36.3743 75.9184 37.342 74.8658 37.8805C73.8128 38.419 71.4587 39.2806 69.634 39.7951C67.8096 40.3096 66.1836 40.8406 66.0212 40.9751C65.8587 41.1096 65.5962 42.7874 65.4375 44.7037C65.152 48.1543 65.1574 48.1875 65.9998 48.1875C66.4676 48.1875 68.2782 47.7863 70.0234 47.2961C71.7687 46.8059 74.7034 45.7111 76.5449 44.8636C78.3868 44.0156 80.7589 42.6251 81.8165 41.7734C82.8741 40.9217 84.0063 39.7629 84.3323 39.1984C84.6583 38.6339 84.9358 37.5337 84.9488 36.7535C84.9622 35.9734 84.6664 34.7568 84.2922 34.0502C83.918 33.3437 82.8447 32.0887 81.9075 31.2613C80.9703 30.4336 79.0572 29.2228 77.6556 28.5703C76.2544 27.9178 74.6778 27.2725 74.1522 27.1363C73.6266 27 74.2409 27.5002 75.5171 28.2482ZM36.5198 32.8685C36.4368 33.104 36.2813 36.8395 36.1743 41.1699C36.0607 45.7467 35.7278 50.4705 35.3789 52.4515C35.0486 54.3257 34.4153 57.0986 33.9711 58.6133C33.5274 60.1278 32.5898 62.4583 31.8876 63.7917C31.088 65.3109 29.9716 66.7449 28.8979 67.6315C27.9553 68.4096 26.7429 69.1453 26.2036 69.2665C25.6639 69.3877 24.6075 69.3836 23.8552 69.2572C22.9299 69.1018 21.8176 68.4459 20.4145 67.229C19.0431 66.0394 18.422 65.6697 18.5794 66.1373C18.7102 66.5262 19.4157 67.8749 20.1469 69.1343C20.8781 70.3941 22.3183 72.2111 23.3473 73.1724C24.3762 74.1336 25.8168 75.1442 26.5484 75.418C27.2803 75.6919 28.492 75.9158 29.2411 75.9158C29.9903 75.9158 31.1568 75.708 31.8334 75.4543C32.5099 75.2003 33.6076 74.5817 34.2723 74.0796C34.9374 73.577 36.1364 72.283 36.9368 71.2033C37.7368 70.1237 39.018 67.9311 39.7836 66.3307C40.5492 64.7303 41.6209 61.8805 42.1656 59.9977C42.7099 58.1149 43.4151 55.1881 43.7327 53.4935C44.0499 51.799 44.4864 48.5641 44.7028 46.3047C44.9187 44.0454 45.0953 40.5794 45.0953 38.6024C45.0949 36.6255 44.9883 34.4305 44.858 33.7243C44.621 32.4406 44.621 32.4406 40.6459 32.4406C37.8006 32.4406 36.6276 32.5621 36.5198 32.8685ZM56.1633 32.6973C56.1499 32.8384 56.1576 34.3405 56.1801 36.035C56.2031 37.7295 56.0395 41.5807 55.8163 44.5931C55.5934 47.6056 55.137 51.5337 54.8018 53.3224C54.467 55.111 53.7714 57.8797 53.2561 59.475C52.7409 61.0702 51.7708 63.3018 51.1004 64.4342C50.4296 65.5666 49.2459 67.064 48.4692 67.762C47.5996 68.5435 46.5286 69.12 45.6816 69.2624C44.7269 69.4226 43.756 69.2976 42.5088 68.8533C41.52 68.5014 40.6027 68.1683 40.47 68.1135C40.3374 68.0584 40.1226 68.2607 39.993 68.563C39.8635 68.8653 40.0328 69.5893 40.3691 70.1719C40.7055 70.7542 41.775 71.9914 42.7458 72.9211C43.7166 73.8505 45.1534 74.9049 45.9389 75.2637C46.724 75.6224 48.0679 75.9158 48.9256 75.9158C49.7833 75.9158 51.1451 75.6142 51.952 75.2455C52.7589 74.8768 54.1161 73.8659 54.9681 72.9988C55.8201 72.1321 57.2939 70.0761 58.2434 68.4298C59.1924 66.7839 60.4117 64.223 60.9522 62.7394C61.493 61.2557 62.2834 58.5127 62.7089 56.6436C63.1339 54.7745 63.734 51.1445 64.0417 48.5767C64.3494 46.0093 64.586 41.3284 64.5672 38.1745C64.5332 32.4406 64.5332 32.4406 60.3605 32.4406C58.0656 32.4406 56.1767 32.5563 56.1633 32.6973ZM0.115832 36.5485C0.115832 37.584 0.187307 38.0078 0.274836 37.4899C0.362365 36.972 0.362365 36.125 0.274836 35.6071C0.187307 35.0892 0.115832 35.513 0.115832 36.5485ZM50.2633 42.7103C46.0589 42.8815 46.0589 42.8815 45.7153 46.5676C45.5261 48.5949 45.4477 50.3216 45.5406 50.4048C45.6331 50.4879 47.5629 50.4229 49.8287 50.2606C52.0942 50.0984 54.0412 49.8817 54.1551 49.7797C54.269 49.6777 54.4957 48.0838 54.6581 46.2376C54.8209 44.3918 54.8446 42.8045 54.7109 42.7103C54.5771 42.6162 52.5758 42.6162 50.2633 42.7103ZM47.6833 51.1801C46.2641 51.2458 45.1033 51.3427 45.1033 51.3954C45.1033 51.4478 44.7532 53.232 44.3255 55.3599C43.8978 57.4878 42.9319 60.935 42.179 63.0201C40.8106 66.8117 40.8106 66.8117 41.8315 67.598C42.5631 68.1615 43.331 68.3847 44.538 68.3847C45.8785 68.3847 46.5 68.1669 47.5763 67.3207C48.3438 66.7172 49.5929 65.0504 50.4621 63.4696C51.3053 61.9366 52.4011 59.2189 52.8972 57.4303C53.3937 55.6416 53.9174 53.4466 54.0615 52.5522C54.3237 50.9261 54.3237 50.9261 52.2933 50.9932C51.1768 51.0302 49.1025 51.1141 47.6833 51.1801Z"/>
</mask>
<path fill-rule="evenodd" clip-rule="evenodd" d="M25.5676 1.80088C24.5983 2.25309 23.0209 3.40432 22.0622 4.35941C21.1036 5.31449 19.5514 7.51735 18.6127 9.25499C17.674 10.993 16.6079 13.2414 16.2437 14.2519C15.6895 15.7889 15.6665 16.1378 16.1046 16.3863C16.3924 16.5496 16.8155 16.6855 17.0452 16.6886C17.2745 16.6913 18.1273 15.3573 18.9403 13.7237C19.7529 12.0901 21.0436 10.1645 21.8081 9.44463C22.9838 8.33756 23.4432 8.13559 24.7852 8.13559C26.074 8.13559 26.6619 8.37008 27.9148 9.3837C28.8226 10.1183 29.9914 11.6321 30.7559 13.0637C31.4706 14.4011 32.4006 16.7279 32.8229 18.2342C33.2453 19.7404 33.8515 22.326 34.1703 23.9801C34.489 25.6338 34.9573 29.8756 35.2107 33.406C35.4645 36.9364 35.5547 40.2429 35.4113 40.754C35.1793 41.582 34.9748 41.6834 33.5339 41.682C32.6444 41.6813 30.2827 41.4458 28.2856 41.1589C26.2885 40.8717 23.0243 40.2418 21.0318 39.7588C19.0393 39.2758 16.3637 38.4563 15.0863 37.9376C13.8085 37.4187 12.1329 36.4126 11.3619 35.7016C10.591 34.9909 9.85293 34.1067 9.72221 33.7373C9.59111 33.368 9.58729 32.5734 9.71304 31.972C9.83917 31.3705 10.4274 30.4027 11.0202 29.8211C11.6131 29.2399 12.8163 28.3385 13.6943 27.8182C14.5718 27.2982 15.29 26.6807 15.29 26.4465C15.29 26.212 15.0672 25.8546 14.7947 25.652C14.4289 25.3802 13.5341 25.5818 11.378 26.4212C9.77114 27.0469 7.63987 27.9873 6.64189 28.5111C5.64391 29.0348 4.12152 30.046 3.25922 30.7581C2.39655 31.4701 1.31066 32.7343 0.846258 33.5679C0.352045 34.4542 0.00460522 35.7071 0.0095741 36.5862C0.0141608 37.4125 0.331023 38.7058 0.713244 39.46C1.09585 40.2138 2.39999 41.6419 3.61163 42.634C4.88634 43.6774 7.12654 45.0005 8.92796 45.7745C10.6403 46.5098 13.4172 47.5097 15.0989 47.9962C16.7807 48.4826 20.1347 49.2539 22.5523 49.7102C24.9698 50.1665 28.4358 50.6464 30.254 50.7772C32.0726 50.908 33.7601 51.1253 34.004 51.2602C34.3358 51.4437 34.2872 52.2728 33.8114 54.5469C33.4616 56.2195 32.8294 58.5921 32.4067 59.8197C31.9843 61.0473 31.205 62.8219 30.6748 63.7633C30.1447 64.7047 29.378 65.8566 28.9705 66.3232C28.5627 66.7898 27.7692 67.4436 27.2066 67.776C26.6436 68.1081 25.5642 68.3812 24.8074 68.3823C23.8939 68.384 22.9188 68.0523 21.9059 67.395C21.0669 66.8507 19.9157 65.6953 19.3481 64.8276C18.7801 63.9598 18.1838 63.2498 18.0225 63.2498C17.8612 63.2498 17.4202 63.4521 17.0425 63.6996C16.3908 64.1265 16.418 64.2843 17.5738 66.7702C18.2438 68.2118 19.4368 70.2815 20.2249 71.3697C21.0134 72.458 22.3715 73.9224 23.2433 74.6242C24.1152 75.326 25.4552 76.1349 26.2216 76.4214C26.9876 76.7083 28.2871 76.9428 29.1089 76.9428C29.931 76.9428 31.1962 76.7209 31.9205 76.4498C32.6448 76.1787 33.8488 75.5242 34.5961 74.9949C35.3433 74.466 36.5794 73.2244 37.3435 72.2358C38.1075 71.2475 38.833 70.4492 38.9557 70.4626C39.0784 70.4756 39.9529 71.4334 40.8989 72.5908C41.8824 73.7941 43.3975 75.1247 44.4367 75.6984C45.5395 76.3067 46.9766 76.7634 48.0912 76.8592C49.4446 76.976 50.4525 76.8154 51.9222 76.2489C53.1732 75.7669 54.5584 74.8416 55.6374 73.7667C56.5838 72.8243 57.9471 71.1089 58.6676 69.9552C59.3881 68.8013 60.6644 66.012 61.5037 63.7564C62.3431 61.5009 63.3881 57.9609 63.8257 55.8898C64.2634 53.8188 64.7446 51.5139 64.8955 50.7676C65.1363 49.5774 65.3343 49.374 66.5078 49.1101C67.2435 48.9447 69.3825 48.3488 71.2611 47.7856C73.1397 47.2225 75.9777 46.1747 77.5677 45.4575C79.1578 44.74 81.2661 43.5145 82.253 42.7346C83.2399 41.9545 84.5731 40.4472 85.2152 39.385C86.0122 38.0677 86.1922 37.3143 86.1922 36.3773C86.1922 35.5527 86.0011 35.008 86.0011 35.008C85.7565 34.3528 85.81 34.3234 85.2366 33.4676C84.6633 32.7829 83.4677 31.3527 82.4128 30.5034C81.3089 29.6147 78.7029 28.1773 76.2724 27.1171C73.95 26.1038 71.3077 25.1299 70.4003 24.9523C68.8928 24.6575 68.7235 24.6935 68.4384 25.3685C68.2667 25.7752 68.2025 26.2233 68.295 26.3644C68.3879 26.5054 68.678 26.6211 68.9395 26.6211C69.2009 26.6211 70.7844 27.2143 72.4582 27.939C74.2646 28.7216 76.0041 29.7698 76.7379 30.5185C77.4305 31.225 77.9744 32.1585 77.9744 32.6405C77.9744 33.1143 77.7164 33.9482 77.4015 34.4939C77.0865 35.0395 76.2693 35.8621 75.5859 36.3212C74.9025 36.7806 73.476 37.5453 72.4158 38.0205C71.3559 38.4956 69.4941 39.1433 68.2786 39.4596C67.0631 39.7763 66.017 39.9824 65.9535 39.918C65.8905 39.8533 65.6489 37.0278 65.4169 33.6387C65.1853 30.2497 64.649 25.691 64.2255 23.508C63.8024 21.325 62.929 17.936 62.2854 15.9769C61.6413 14.0177 60.3632 11.0282 59.4451 9.33372C58.5029 7.59471 56.9354 5.41411 55.8468 4.32723C54.7862 3.26808 53.1407 2.07405 52.1905 1.67422C51.2403 1.27404 49.7672 0.946777 48.9175 0.946777C48.0675 0.946777 46.7756 1.16997 46.0467 1.44281C45.3178 1.71564 44.1501 2.32908 43.4514 2.80628C42.7531 3.28348 41.528 4.52372 40.7292 5.56233C39.9303 6.60095 39.1544 7.45094 39.0046 7.45094C38.8552 7.45094 38.1075 6.64237 37.3435 5.65374C36.5794 4.6651 35.3888 3.45636 34.6973 2.96683C34.0059 2.47765 32.891 1.82313 32.2198 1.51195C31.5482 1.20112 30.1734 0.953966 29.1647 0.962867C28.0004 0.972794 26.686 1.27917 25.5676 1.80088ZM47.5335 1.9895C46.873 2.11308 45.7241 2.55125 44.9803 2.96307C44.2365 3.37488 43.0772 4.27348 42.4041 4.95984C41.7314 5.6462 40.8695 6.83065 40.4892 7.59129C40.1085 8.35228 39.8738 9.04343 39.9674 9.12696C40.0611 9.21083 40.5239 8.96435 40.996 8.57924C41.468 8.19378 42.2302 7.70563 42.6892 7.49373C43.1487 7.28183 44.0947 7.1093 44.7914 7.10998C45.4886 7.11067 46.5978 7.40541 47.2568 7.76553C47.9157 8.12532 48.8957 8.93731 49.4347 9.56992C49.9736 10.2029 50.938 11.7225 51.5774 12.947C52.2173 14.1714 53.138 16.6269 53.6238 18.4039C54.394 21.2237 54.6256 21.6646 55.4428 21.8686C56.3789 22.1028 56.3789 22.1028 55.4872 22.1366C54.9547 22.1572 54.6593 22.3434 54.7537 22.5988C54.8641 22.8969 56.148 23.0561 58.9898 23.1239C61.7128 23.1886 63.0678 23.0986 63.0678 22.8528C63.0678 22.6501 62.7998 21.3226 62.4723 19.9026C62.1447 18.4823 61.3539 15.9858 60.7148 14.3542C60.0757 12.7227 58.9348 10.3278 58.1791 9.03282C57.4239 7.73746 55.9558 5.84475 54.9169 4.82668C53.878 3.80895 52.6641 2.80046 52.2192 2.58617C51.7739 2.37153 50.808 2.09904 50.0722 1.98025C49.3364 1.86181 48.194 1.86592 47.5335 1.9895ZM25.5745 2.94732C24.6319 3.48272 23.251 4.55864 22.506 5.33811C21.7611 6.11793 20.7119 7.48962 20.1752 8.38685C19.6382 9.28408 19.0782 10.4035 18.9311 10.8742C18.756 11.4339 19.1222 11.1374 19.9891 10.0184C20.718 9.07698 21.8348 8.037 22.4701 7.70768C23.1057 7.37836 24.2528 7.10861 25.0191 7.10861C25.7855 7.10861 26.9111 7.33968 27.5204 7.62176C28.1296 7.90383 29.0642 8.64668 29.597 9.27244C30.1298 9.89787 31.1553 11.554 31.8758 12.9528C32.5963 14.3512 33.5851 16.8618 34.0732 18.5313C34.7375 20.8043 35.1541 21.6372 35.732 21.8474C36.3814 22.0832 36.3975 22.1308 35.8345 22.1493C35.4664 22.161 35.1656 22.3058 35.1656 22.4704C35.1656 22.6351 35.703 22.8661 36.36 22.9839C37.0171 23.1017 38.9205 23.1979 40.5901 23.1979C43.2985 23.1979 43.6054 23.1332 43.4369 22.5988C43.3333 22.2695 43.1311 21.3065 42.9877 20.4593C42.8448 19.612 42.2118 17.4554 41.5815 15.6667C40.9513 13.8781 39.6678 11.0765 38.7298 9.44053C37.7914 7.8049 36.3268 5.75746 35.4748 4.89069C34.6228 4.02359 33.2655 3.0127 32.4587 2.64402C31.5998 2.25172 30.2242 1.97375 29.1402 1.97375C27.7619 1.97375 26.8503 2.22262 25.5745 2.94732ZM42.9342 8.29271C42.2669 8.55288 41.4439 9.14442 41.1049 9.60758C40.5262 10.3987 40.5488 10.5921 41.4734 12.7922C42.0146 14.0804 42.8735 16.6043 43.3822 18.4009C43.8905 20.197 44.5805 23.1284 44.9153 24.9143C45.2501 26.7002 45.6277 31.2969 45.7543 35.1289C45.9844 42.0962 45.9844 42.0962 50.2916 41.9737C52.6606 41.9066 54.7414 41.7234 54.9154 41.567C55.0896 41.4105 55.21 39.2546 55.1825 36.7761C55.1554 34.2974 54.9299 30.729 54.6814 28.8462C54.433 26.9634 53.8058 23.5207 53.2875 21.1953C52.7696 18.8702 51.8354 15.7828 51.2116 14.3341C50.5878 12.8853 49.5597 11.0693 48.9267 10.2984C48.2937 9.52748 47.1914 8.64873 46.4774 8.34509C45.7631 8.04145 44.947 7.79942 44.6634 7.80661C44.3798 7.81414 43.6016 8.03289 42.9342 8.29271ZM11.2637 27.405C10.2053 27.8213 8.50713 28.6028 7.48927 29.1423C6.4718 29.6818 4.96011 30.6725 4.13031 31.3441C3.3005 32.0158 2.28991 33.1472 1.88475 33.8585C1.47922 34.5699 1.14783 35.7803 1.14783 36.5485C1.14783 37.3167 1.4861 38.5388 1.89928 39.2642C2.31246 39.9895 3.46295 41.2048 4.45596 41.9651C5.44859 42.7251 7.64751 43.9578 9.34228 44.7044C11.0367 45.451 14.3226 46.6077 16.6439 47.2749C18.9647 47.9421 22.5767 48.791 24.6705 49.1614C26.764 49.5318 29.6807 49.9272 31.1522 50.0398C32.6238 50.1528 34.025 50.1288 34.2658 49.9864C34.507 49.8444 34.8671 48.1875 35.0666 46.3047C35.2661 44.422 35.4129 42.8572 35.393 42.8274C35.3731 42.798 33.6367 42.5946 31.5345 42.3762C29.4322 42.1575 25.9922 41.6638 23.89 41.2791C21.7878 40.8946 18.8638 40.197 17.3923 39.7287C15.9207 39.2607 14.0169 38.5175 13.1614 38.0773C12.3064 37.6371 11.0562 36.7731 10.3838 36.1572C9.71151 35.541 8.99561 34.4867 8.79341 33.8137C8.553 33.0143 8.55988 32.1548 8.81252 31.3346C9.07511 30.4829 9.89651 29.5226 11.3658 28.3502C12.5568 27.3992 13.4542 26.6273 13.3598 26.6348C13.265 26.6423 12.3221 26.9891 11.2637 27.405ZM75.5171 28.2482C77.0815 29.1649 78.06 30.0282 78.521 30.8981C78.9686 31.743 79.1306 32.5977 78.99 33.3734C78.8719 34.0249 78.3264 35.0854 77.7776 35.73C77.2287 36.3743 75.9184 37.342 74.8658 37.8805C73.8128 38.419 71.4587 39.2806 69.634 39.7951C67.8096 40.3096 66.1836 40.8406 66.0212 40.9751C65.8587 41.1096 65.5962 42.7874 65.4375 44.7037C65.152 48.1543 65.1574 48.1875 65.9998 48.1875C66.4676 48.1875 68.2782 47.7863 70.0234 47.2961C71.7687 46.8059 74.7034 45.7111 76.5449 44.8636C78.3868 44.0156 80.7589 42.6251 81.8165 41.7734C82.8741 40.9217 84.0063 39.7629 84.3323 39.1984C84.6583 38.6339 84.9358 37.5337 84.9488 36.7535C84.9622 35.9734 84.6664 34.7568 84.2922 34.0502C83.918 33.3437 82.8447 32.0887 81.9075 31.2613C80.9703 30.4336 79.0572 29.2228 77.6556 28.5703C76.2544 27.9178 74.6778 27.2725 74.1522 27.1363C73.6266 27 74.2409 27.5002 75.5171 28.2482ZM36.5198 32.8685C36.4368 33.104 36.2813 36.8395 36.1743 41.1699C36.0607 45.7467 35.7278 50.4705 35.3789 52.4515C35.0486 54.3257 34.4153 57.0986 33.9711 58.6133C33.5274 60.1278 32.5898 62.4583 31.8876 63.7917C31.088 65.3109 29.9716 66.7449 28.8979 67.6315C27.9553 68.4096 26.7429 69.1453 26.2036 69.2665C25.6639 69.3877 24.6075 69.3836 23.8552 69.2572C22.9299 69.1018 21.8176 68.4459 20.4145 67.229C19.0431 66.0394 18.422 65.6697 18.5794 66.1373C18.7102 66.5262 19.4157 67.8749 20.1469 69.1343C20.8781 70.3941 22.3183 72.2111 23.3473 73.1724C24.3762 74.1336 25.8168 75.1442 26.5484 75.418C27.2803 75.6919 28.492 75.9158 29.2411 75.9158C29.9903 75.9158 31.1568 75.708 31.8334 75.4543C32.5099 75.2003 33.6076 74.5817 34.2723 74.0796C34.9374 73.577 36.1364 72.283 36.9368 71.2033C37.7368 70.1237 39.018 67.9311 39.7836 66.3307C40.5492 64.7303 41.6209 61.8805 42.1656 59.9977C42.7099 58.1149 43.4151 55.1881 43.7327 53.4935C44.0499 51.799 44.4864 48.5641 44.7028 46.3047C44.9187 44.0454 45.0953 40.5794 45.0953 38.6024C45.0949 36.6255 44.9883 34.4305 44.858 33.7243C44.621 32.4406 44.621 32.4406 40.6459 32.4406C37.8006 32.4406 36.6276 32.5621 36.5198 32.8685ZM56.1633 32.6973C56.1499 32.8384 56.1576 34.3405 56.1801 36.035C56.2031 37.7295 56.0395 41.5807 55.8163 44.5931C55.5934 47.6056 55.137 51.5337 54.8018 53.3224C54.467 55.111 53.7714 57.8797 53.2561 59.475C52.7409 61.0702 51.7708 63.3018 51.1004 64.4342C50.4296 65.5666 49.2459 67.064 48.4692 67.762C47.5996 68.5435 46.5286 69.12 45.6816 69.2624C44.7269 69.4226 43.756 69.2976 42.5088 68.8533C41.52 68.5014 40.6027 68.1683 40.47 68.1135C40.3374 68.0584 40.1226 68.2607 39.993 68.563C39.8635 68.8653 40.0328 69.5893 40.3691 70.1719C40.7055 70.7542 41.775 71.9914 42.7458 72.9211C43.7166 73.8505 45.1534 74.9049 45.9389 75.2637C46.724 75.6224 48.0679 75.9158 48.9256 75.9158C49.7833 75.9158 51.1451 75.6142 51.952 75.2455C52.7589 74.8768 54.1161 73.8659 54.9681 72.9988C55.8201 72.1321 57.2939 70.0761 58.2434 68.4298C59.1924 66.7839 60.4117 64.223 60.9522 62.7394C61.493 61.2557 62.2834 58.5127 62.7089 56.6436C63.1339 54.7745 63.734 51.1445 64.0417 48.5767C64.3494 46.0093 64.586 41.3284 64.5672 38.1745C64.5332 32.4406 64.5332 32.4406 60.3605 32.4406C58.0656 32.4406 56.1767 32.5563 56.1633 32.6973ZM0.115832 36.5485C0.115832 37.584 0.187307 38.0078 0.274836 37.4899C0.362365 36.972 0.362365 36.125 0.274836 35.6071C0.187307 35.0892 0.115832 35.513 0.115832 36.5485ZM50.2633 42.7103C46.0589 42.8815 46.0589 42.8815 45.7153 46.5676C45.5261 48.5949 45.4477 50.3216 45.5406 50.4048C45.6331 50.4879 47.5629 50.4229 49.8287 50.2606C52.0942 50.0984 54.0412 49.8817 54.1551 49.7797C54.269 49.6777 54.4957 48.0838 54.6581 46.2376C54.8209 44.3918 54.8446 42.8045 54.7109 42.7103C54.5771 42.6162 52.5758 42.6162 50.2633 42.7103ZM47.6833 51.1801C46.2641 51.2458 45.1033 51.3427 45.1033 51.3954C45.1033 51.4478 44.7532 53.232 44.3255 55.3599C43.8978 57.4878 42.9319 60.935 42.179 63.0201C40.8106 66.8117 40.8106 66.8117 41.8315 67.598C42.5631 68.1615 43.331 68.3847 44.538 68.3847C45.8785 68.3847 46.5 68.1669 47.5763 67.3207C48.3438 66.7172 49.5929 65.0504 50.4621 63.4696C51.3053 61.9366 52.4011 59.2189 52.8972 57.4303C53.3937 55.6416 53.9174 53.4466 54.0615 52.5522C54.3237 50.9261 54.3237 50.9261 52.2933 50.9932C51.1768 51.0302 49.1025 51.1141 47.6833 51.1801Z" fill="white" stroke="white" stroke-width="4" mask="url(#path-1-inside-1_206_2)"/>
<path fill-rule="evenodd" clip-rule="evenodd" d="M47.5325 1.98949C46.872 2.11307 45.723 2.55125 44.9792 2.96306C44.2354 3.37488 43.0761 4.27348 42.403 4.95984C41.7303 5.6462 40.8684 6.83064 40.4881 7.59128C40.1074 8.35227 39.8727 9.04342 39.9664 9.12695C40.06 9.21082 40.5229 8.96434 40.9949 8.57923C41.467 8.19377 42.2291 7.70562 42.6882 7.49372C43.1476 7.28182 44.0936 7.10929 44.7904 7.10998C45.4876 7.11066 46.5968 7.4054 47.2557 7.76553C47.9147 8.12531 48.8947 8.9373 49.4336 9.56992C49.9726 10.2029 50.9369 11.7225 51.5764 12.9469C52.2162 14.1714 53.137 16.6269 53.6228 18.4039C54.393 21.2237 54.2229 22.6515 55.0401 22.8555C57.7156 23.1978 57.7156 23.2875 59.6267 23.369C63.6401 23.5402 63.4489 23.8825 62.6065 20.3737C62.4108 19.385 61.6571 16.9758 60.9312 15.0197C60.2058 13.0633 58.9804 10.386 58.2083 9.07012C57.4362 7.75457 55.9547 5.84475 54.9158 4.82667C53.877 3.80894 52.663 2.80046 52.2181 2.58616C51.7728 2.37153 50.8069 2.09904 50.0712 1.98025C49.3354 1.86181 48.1929 1.86591 47.5325 1.98949ZM25.5734 2.94731C24.6308 3.48271 23.2499 4.55863 22.5049 5.33811C21.76 6.11792 20.7108 7.48961 20.1741 8.38684C19.6371 9.28408 19.0772 10.4035 18.93 10.8742C18.7549 11.4339 19.1211 11.1374 19.988 10.0184C20.7169 9.07697 21.8337 8.03699 22.469 7.70767C23.1046 7.37836 24.2517 7.10861 25.018 7.10861C25.7844 7.10861 26.91 7.33967 27.5193 7.62175C28.1286 7.90382 29.0631 8.64667 29.5959 9.27244C30.1287 9.89786 31.1542 11.554 31.8747 12.9528C32.5952 14.3512 33.5836 16.8607 34.0713 18.5292C34.8356 21.1439 34.7823 22.1709 35.3556 22.8555C36.5023 23.0267 38.2261 23.2665 39.9423 23.369C42.8089 23.5402 43.8429 23.7969 43.5734 22.1709C43.4251 21.2767 42.2203 17.4554 41.5866 15.6667C40.9529 13.8781 39.6667 11.0765 38.7287 9.44052C37.7904 7.80489 36.3257 5.75745 35.4737 4.89069C34.6217 4.02358 33.2645 3.0127 32.4576 2.64402C31.5988 2.25171 30.2231 1.97375 29.1392 1.97375C27.7609 1.97375 26.8493 2.22261 25.5734 2.94731ZM11.2626 27.405C10.2042 27.8213 8.50603 28.6028 7.48818 29.1423C6.4707 29.6818 4.95901 30.6725 4.12921 31.3441C3.2994 32.0158 2.28881 33.1471 1.88365 33.8585C1.47812 34.5698 1.14673 35.7803 1.14673 36.5485C1.14673 37.3167 1.485 38.5387 1.89818 39.2641C2.31136 39.9895 3.46185 41.2048 4.45486 41.9651C5.44749 42.725 7.64642 43.9577 9.34119 44.7043C11.0356 45.451 14.3215 46.6077 16.6428 47.2749C18.9636 47.9421 22.5756 48.791 24.6694 49.1614C26.7629 49.5318 29.6796 49.9272 31.1512 50.0398C32.6227 50.1528 34.024 50.1288 34.2648 49.9864C34.5059 49.8443 34.866 48.1875 35.0655 46.3047C35.265 44.4219 35.4118 42.8572 35.3919 42.8274C35.3721 42.7979 33.6356 42.5946 31.5334 42.3762C29.4312 42.1575 25.9912 41.6638 23.8889 41.2791C21.7867 40.8946 18.8627 40.197 17.3912 39.7287C15.9196 39.2607 14.0158 38.5175 13.1604 38.0773C12.3053 37.6371 11.0551 36.773 10.3827 36.1572C9.71042 35.541 8.99451 34.4867 8.79232 33.8136C8.5519 33.0143 8.55878 32.1547 8.81143 31.3345C9.07402 30.4828 9.89541 29.5226 11.3647 28.3502C12.5557 27.3992 13.4531 26.6272 13.3587 26.6348C13.2639 26.6423 12.321 26.9891 11.2626 27.405ZM75.5161 28.2481C77.0805 29.1649 78.059 30.0282 78.52 30.8981C78.9675 31.7429 79.1296 32.5977 78.989 33.3734C78.8708 34.0249 78.3254 35.0854 77.7765 35.73C77.2277 36.3742 75.9174 37.342 74.8648 37.8805C73.8118 38.4189 71.4576 39.2806 69.6329 39.7951C67.8086 40.3096 66.1826 40.8405 66.0202 40.9751C65.8577 41.1096 65.5951 42.7873 65.4365 44.7037C65.151 48.1543 65.1563 48.1875 65.9988 48.1875C66.4666 48.1875 68.2772 47.7863 70.0224 47.2961C71.7676 46.8059 74.7023 45.7111 76.5439 44.8635C78.3858 44.0156 80.7579 42.6251 81.8155 41.7734C82.8731 40.9217 84.0052 39.7629 84.3313 39.1984C84.6573 38.6339 84.9348 37.5337 84.9478 36.7535C84.9612 35.9734 84.6653 34.7568 84.2911 34.0502C83.9169 33.3436 82.8437 32.0887 81.9065 31.2613C80.9692 30.4335 79.0562 29.2227 77.6546 28.5703C76.2534 27.9178 74.6767 27.2725 74.1512 27.1363C73.6256 27 74.2398 27.5002 75.5161 28.2481ZM35.8334 41.2791C35.7099 45.6269 35.4007 50.4688 35.0655 52.3715C34.7353 54.2457 34.4142 57.0985 33.9701 58.6133C33.5263 60.1278 32.5887 62.4583 31.8866 63.7917C31.087 65.3109 29.9705 66.7449 28.8968 67.6315C27.9543 68.4096 26.7419 69.1453 26.2025 69.2664C25.6628 69.3876 24.6064 69.3835 23.8542 69.2572C22.9288 69.1018 21.8165 68.4459 20.4134 67.2289C19.042 66.0394 18.4209 65.6696 18.5784 66.1373C18.7091 66.5261 19.4147 67.8749 20.1458 69.1343C20.877 70.3941 22.3173 72.2111 23.3462 73.1724C24.3751 74.1336 25.8157 75.1441 26.5473 75.418C27.2793 75.6919 28.4909 75.9157 29.2401 75.9157C29.9892 75.9157 31.1558 75.708 31.8323 75.4543C32.5088 75.2003 33.6066 74.5817 34.2713 74.0795C34.9363 73.577 36.1353 72.283 36.9357 71.2033C37.7357 70.1236 39.0169 67.931 39.7825 66.3307C40.5481 64.7303 41.6199 61.8805 42.1645 59.9977C42.7088 58.1149 43.414 55.188 43.7316 53.4935C44.0489 51.799 44.4854 48.5641 44.7017 46.3047C44.9177 44.0454 45.0962 40.4763 45.0985 38.3737C45.1004 36.2709 45.0388 33.9365 44.9112 33.6387C44.9112 31.7279 42.7631 32.0983 39.3689 32.0983C35.2601 32.0983 36.1361 32.1219 35.8334 41.2791ZM55.9001 36.7535C55.9001 38.7219 55.6256 41.9538 55.4223 44.8635C55.2121 47.6877 55.136 51.5337 54.8008 53.3224C54.466 55.111 53.7703 57.8797 53.2551 59.4749C52.7398 61.0702 51.7698 63.3018 51.0993 64.4342C50.4285 65.5666 49.2448 67.0639 48.4681 67.7619C47.5986 68.5435 46.5276 69.1199 45.6806 69.2623C44.7258 69.4225 43.7549 69.2976 42.5078 68.8533C41.5189 68.5013 40.6016 68.1683 40.469 68.1135C40.3364 68.0584 40.1215 68.2607 39.992 68.563C39.8624 68.8652 40.0317 69.5893 40.3681 70.1719C40.7044 70.7542 41.7739 71.9913 42.7447 72.9211C43.7156 73.8505 45.1524 74.9049 45.9378 75.2636C46.7229 75.6224 48.0668 75.9157 48.9245 75.9157C49.7822 75.9157 51.1441 75.6142 51.9509 75.2455C52.7578 74.8768 54.1151 73.8659 54.9671 72.9988C55.819 72.132 57.2929 70.076 58.2423 68.4298C59.1914 66.7839 60.4107 64.223 60.9511 62.7394C61.492 61.2557 62.2824 58.5127 62.7078 56.6436C63.1329 54.7745 64.0366 51.7292 64.3408 49.1614C64.966 47.1523 65.1348 42.0698 65.1371 39.1984C65.5235 32.951 64.2388 31.624 60.0089 31.9271C55.2312 32.2694 55.9001 30.8388 55.9001 36.7535ZM50.2623 42.7103C46.0578 42.8815 46.0578 42.8815 45.7142 46.5676C45.525 48.5949 45.4467 50.3215 45.5395 50.4047C45.632 50.4879 47.5619 50.4229 49.8277 50.2606C52.0931 50.0983 54.0402 49.8817 54.1541 49.7796C54.268 49.6776 54.4946 48.0838 54.6571 46.2376C54.8199 44.3918 54.8436 42.8044 54.7098 42.7103C54.576 42.6162 52.5747 42.6162 50.2623 42.7103Z" fill="white"/>
</g>
<defs>
<clipPath id="clip0_206_2">
<rect width="86" height="76.6806" fill="white" transform="translate(0 0.946777)"/>
</clipPath>
</defs>
</svg>
