<!DOCTYPE svg PUBLIC "-//W3C//DTD SVG 1.1//EN" "http://www.w3.org/Graphics/SVG/1.1/DTD/svg11.dtd">
<!-- Uploaded to: SVG Repo, www.svgrepo.com, Transformed by: SVG Repo Mixer Tools -->
<svg fill="#ffffff" width="100px" height="100px" viewBox="0 0 64 64" xmlns="http://www.w3.org/2000/svg" stroke="#ffffff">
<g id="SVGRepo_bgCarrier" stroke-width="0"/>
<g id="SVGRepo_tracerCarrier" stroke-linecap="round" stroke-linejoin="round"/>
<g id="SVGRepo_iconCarrier"> <title/> <g data-name="Layer 19" id="Layer_19"> <path d="M58,30a1,1,0,0,0-.47-.86L50,24.63V5H14V24.63L6.49,29.14A1,1,0,0,0,6,30H6V58a1,1,0,0,0,1,1H57a1,1,0,0,0,1-1V30Zm-2.93,0-5,2.63V27ZM48,7V33.67L32,42,16,33.67V7ZM14,32.63,9,30,14,27ZM8,57V31.76l23,12V50h2V43.72l23-12V57Z"/> <path d="M40,55H54V43H40Zm2-10H52v8H42Z"/> <rect height="2" width="14" x="10" y="44"/> <rect height="2" width="14" x="10" y="53"/> <rect height="2" width="14" x="10" y="49"/> <polygon points="41.41 15.07 40.07 13.59 28.96 23.69 23.84 19.59 22.59 21.16 29.04 26.31 41.41 15.07"/> </g> </g>
</svg>