<!DOCTYPE svg PUBLIC "-//W3C//DTD SVG 1.1//EN"
  "http://www.w3.org/Graphics/SVG/1.1/DTD/svg11.dtd">
<!-- Uploaded to: SVG Repo, www.svgrepo.com, Transformed by: SVG Repo Mixer Tools -->
<svg
  width="30px"
  height="30px"
  viewBox="-8.98 0 217.7 217.7"
  xmlns="http://www.w3.org/2000/svg"
  fill="#ffffff"
  stroke="#ffffff"
>

<g id="SVGRepo_bgCarrier" stroke-width="0" />

<g id="SVGRepo_tracerCarrier" stroke-linecap="round" stroke-linejoin="round" />

<g id="SVGRepo_iconCarrier"> <defs> <style
      >.cls-1{fill:#ffffff;}</style> </defs> <g
      id="Layer_2"
      data-name="Layer 2"
    > <g id="Layer_1-2" data-name="Layer 1"> <path
          d="M189,28.07c2.26,2.47,4,4.41,5.74,6.26,5.44,5.63,6.28,12.28,3.15,19a221.61,221.61,0,0,1-12.16,22.69C178.57,87.77,171,99.25,162,109.73c-1.83,2.13-3.81,4.15-5.74,6.25-3.59-1.26-5.81-3.49-8-5.64s-2.91-5-1.26-7.82c2.17-3.7,4.42-7.37,6.9-10.87,6.46-9.11,13.25-18,19.53-27.21,3.37-4.95,6-10.39,8.89-15.66.63-1.17,1.13-2.63-1.06-3.93-.65.94-1.3,1.77-1.81,2.67-8.13,14.18-16.48,28.18-27.8,40.19-4.5,4.79-8.45,10.11-12.57,15.25a32.1,32.1,0,0,0-2.13,3.66c-.55.9-1.07,2.4-1.8,2.53-3.25.58-4.6,3.27-6.45,5.34-7.46,8.33-14.8,16.75-22.24,25.09A214.24,214.24,0,0,1,64.57,176.3C56.46,181.65,49,187.91,41,193.45c-8.49,5.88-16.53,12.16-23.61,19.77-4.77,5.12-9.39,5.55-14.72,2.83-2.39-1.22-3.06-3-2.37-5.7,1.24-4.93,4.29-8.8,7.76-12.18s5.22-7.2,6.49-11.72a56.7,56.7,0,0,1,5.25-12.65c7.63-13.45,15.2-27,23.48-40C54.79,115.58,68.78,99.26,83.9,83.91c1.61-1.63,3.19-3.3,4.85-4.88a5.83,5.83,0,0,0,2.13-5.33,7.57,7.57,0,0,1,2.18-6.3c8.38-9.4,15.43-20,24.84-28.48,12.35-11.13,24.78-22.2,39.25-30.58A138.15,138.15,0,0,1,172.58.84c5.29-2.24,14.41.21,18,4.74a9.34,9.34,0,0,1,2,5.46,67.2,67.2,0,0,1-1.43,11A42.38,42.38,0,0,1,189,28.07Zm-93.62,54A26.29,26.29,0,0,0,92,84.83c-8.94,10-18.26,19.76-26.63,30.25a334.26,334.26,0,0,0-35.7,55.46c-2.23,4.32-4.86,8.42-7.18,12.69-1.73,3.18-1.38,5.29,1,7.78,2.76,2.89,4.85,3.25,8.31,1.24a53.44,53.44,0,0,0,5-3.3c4.36-3.21,8.68-6.49,13-9.74,10.52-7.89,21.46-15.18,31.5-23.73C94.34,144.34,105,131,117,118.7c3.09-3.18,5.07-7.44,7.75-11.49-4.92-3.86-10-7.54-14.67-11.59C105.06,91.35,100.4,86.74,95.41,82.1Zm35.16,20.38c7.27-8.55,13.9-16,20.18-23.8,13.9-17.23,24.9-36.26,34-56.37a25.21,25.21,0,0,0,1.74-9.17c.2-4.3-2.44-7.2-6.71-7.23a21.13,21.13,0,0,0-8.25,1.72c-17.55,7.61-32.62,19-46.2,32.18-8.18,7.95-15.51,16.79-23.1,25.33-1.66,1.88-2.83,4.2-4.44,6.63C106.16,84.81,117.72,93.81,130.57,102.48Zm24.69,3.77a16.57,16.57,0,0,0,2.87-2.49c7.05-9.7,14.12-19.38,21-29.21a145.65,145.65,0,0,0,12.77-22.23c2.61-5.65,2.49-10.43-2.54-14.56-.86-.71-1.65-1.51-3-2.75-.68,1.61-1.61,2.8-1.55,4a7.39,7.39,0,0,0,1.61,3.88c2.68,3.38,2.58,6.7.49,10.3-1.29,2.21-2.1,4.71-3.48,6.85q-8.82,13.66-17.86,27.18c-3.33,5-6.86,9.83-10.22,14.79C154.57,103.07,153.65,104.35,155.26,106.25ZM21.63,198.91c-4.06-1.11-4.14-1.18-4.73-.49-2.54,3-5.11,6-7.5,9.05-.47.61-.22,1.76-.38,3.51C15,208.16,17.64,203.56,21.63,198.91Z"
        /> <path
          class="cls-1"
          d="M95.41,82.1c5,4.64,9.65,9.25,14.62,13.52,4.72,4,9.75,7.73,14.67,11.59C122,111.26,120,115.52,117,118.7,105,131,94.34,144.34,81.27,155.48c-10,8.55-21,15.84-31.5,23.73-4.34,3.25-8.66,6.53-13,9.74a53.44,53.44,0,0,1-5,3.3c-3.46,2-5.55,1.65-8.31-1.24-2.36-2.49-2.71-4.6-1-7.78,2.32-4.27,4.95-8.37,7.18-12.69a334.26,334.26,0,0,1,35.7-55.46C73.7,104.59,83,94.86,92,84.83A26.29,26.29,0,0,1,95.41,82.1Z"
        /> <path
          class="cls-1"
          d="M130.57,102.48c-12.85-8.67-24.41-17.67-32.74-30.71,1.61-2.43,2.78-4.75,4.44-6.63,7.59-8.54,14.92-17.38,23.1-25.33C139,26.59,154,15.24,171.57,7.63a21.13,21.13,0,0,1,8.25-1.72c4.27,0,6.91,2.93,6.71,7.23a25.21,25.21,0,0,1-1.74,9.17c-9.14,20.11-20.14,39.14-34,56.37C144.47,86.45,137.84,93.93,130.57,102.48Z"
        /> <path
          class="cls-1"
          d="M155.26,106.25c-1.61-1.9-.69-3.18.07-4.29,3.36-5,6.89-9.81,10.22-14.79q9-13.53,17.86-27.18c1.38-2.14,2.19-4.64,3.48-6.85,2.09-3.6,2.19-6.92-.49-10.3A7.39,7.39,0,0,1,184.79,39c-.06-1.15.87-2.34,1.55-4,1.36,1.24,2.15,2,3,2.75,5,4.13,5.15,8.91,2.54,14.56a145.65,145.65,0,0,1-12.77,22.23c-6.87,9.83-13.94,19.51-21,29.21A16.57,16.57,0,0,1,155.26,106.25Z"
        /> <path
          class="cls-1"
          d="M21.63,198.91C17.64,203.56,15,208.16,9,211c.16-1.75-.09-2.9.38-3.51,2.39-3.1,5-6.07,7.5-9.05C17.49,197.73,17.57,197.8,21.63,198.91Z"
        /> </g> </g> </g>

</svg>
