<svg
  width="100"
  height="100"
  viewBox="0 0 158 151"
  fill="none"
  xmlns="http://www.w3.org/2000/svg"
>
<path
    fill-rule="evenodd"
    clip-rule="evenodd"
    d="M0.166748 21.8333C0.166748 9.95922 9.79266 0.333313 21.6667 0.333313H53.4756C63.3413 0.333313 71.9409 7.04769 74.3339 16.6188L77.4291 29H89.7501H136.333C148.208 29 157.833 38.6259 157.833 50.5V64.8333C157.833 68.7915 154.625 72 150.667 72C146.709 72 143.5 68.7915 143.5 64.8333V50.5C143.5 46.542 140.292 43.3333 136.333 43.3333H89.7501H77.4291H21.6667C17.7087 43.3333 14.5001 46.542 14.5001 50.5V57.6666V122.167C14.5001 126.125 17.7087 129.333 21.6667 129.333H57.5001C61.4581 129.333 64.6667 132.542 64.6667 136.5C64.6667 140.458 61.4581 143.667 57.5001 143.667H21.6667C9.79266 143.667 0.166748 134.041 0.166748 122.167V57.6666V50.5V21.8333ZM14.5001 30.2234C16.7417 29.4311 19.1538 29 21.6667 29H62.6545L60.4283 20.0951C59.6307 16.9048 56.7642 14.6666 53.4756 14.6666H21.6667C17.7087 14.6666 14.5001 17.8753 14.5001 21.8333V30.2234ZM137.563 120.428C141.315 114.763 143.5 107.97 143.5 100.667C143.5 80.8766 127.457 64.8333 107.667 64.8333C87.8767 64.8333 71.8334 80.8766 71.8334 100.667C71.8334 120.457 87.8767 136.5 107.667 136.5C114.97 136.5 121.764 134.315 127.428 130.563L145.599 148.734C148.398 151.533 152.936 151.533 155.734 148.734C158.533 145.936 158.533 141.398 155.734 138.599L137.563 120.428ZM86.1667 100.667C86.1667 88.7922 95.7923 79.1666 107.667 79.1666C119.541 79.1666 129.167 88.7922 129.167 100.667C129.167 112.541 119.541 122.167 107.667 122.167C95.7923 122.167 86.1667 112.541 86.1667 100.667Z"
    fill="white"
  />
</svg>
