<svg
  width="200"
  height="60"
  viewBox="0 0 816 242"
  fill="none"
  xmlns="http://www.w3.org/2000/svg"
>
<path
    d="M53.55 160H4.8V147.1L17.85 141.1V71.8L4.8 65.8V52.9H53.55V65.8L40.5 71.8V141.1L53.55 147.1V160ZM150.333 88.832C158.269 88.832 164.242 90.88 168.253 94.976C172.349 98.9867 174.397 105.472 174.397 114.432V160H155.325V119.168C155.325 114.133 154.471 110.379 152.765 107.904C151.058 105.344 148.413 104.064 144.829 104.064C139.794 104.064 136.21 105.856 134.077 109.44C131.943 113.024 130.877 118.187 130.877 124.928V160H111.805V119.168C111.805 115.84 111.421 113.067 110.653 110.848C109.885 108.629 108.733 106.965 107.197 105.856C105.661 104.661 103.698 104.064 101.309 104.064C97.8101 104.064 95.0368 104.96 92.9888 106.752C90.9408 108.544 89.4901 111.147 88.6368 114.56C87.7834 117.973 87.3568 122.155 87.3568 127.104V160H68.2848V90.112H82.8768L85.4368 99.072H86.4608C87.9115 96.6827 89.7035 94.7627 91.8368 93.312C93.9701 91.776 96.3168 90.6667 98.8768 89.984C101.522 89.216 104.167 88.832 106.813 88.832C111.933 88.832 116.285 89.6853 119.869 91.392C123.453 93.0133 126.183 95.5733 128.061 99.072H129.725C131.858 95.488 134.802 92.8853 138.557 91.264C142.397 89.6427 146.322 88.832 150.333 88.832ZM232.947 88.832C240.797 88.832 247.155 91.904 252.019 98.048C256.883 104.107 259.315 113.067 259.315 124.928C259.315 132.864 258.163 139.563 255.859 145.024C253.555 150.4 250.397 154.453 246.387 157.184C242.376 159.915 237.725 161.28 232.435 161.28C229.107 161.28 226.205 160.853 223.731 160C221.341 159.147 219.293 158.037 217.587 156.672C215.88 155.307 214.387 153.856 213.107 152.32H212.083C212.424 153.941 212.68 155.648 212.851 157.44C213.021 159.147 213.107 160.853 213.107 162.56V190.72H194.035V90.112H209.523L212.211 99.2H213.107C214.387 97.3227 215.923 95.616 217.715 94.08C219.507 92.4587 221.64 91.1787 224.115 90.24C226.675 89.3013 229.619 88.832 232.947 88.832ZM226.803 104.064C223.475 104.064 220.829 104.747 218.867 106.112C216.904 107.477 215.453 109.568 214.515 112.384C213.661 115.115 213.192 118.571 213.107 122.752V124.8C213.107 129.323 213.533 133.163 214.387 136.32C215.24 139.392 216.691 141.739 218.739 143.36C220.787 144.981 223.56 145.792 227.059 145.792C229.96 145.792 232.349 144.981 234.227 143.36C236.104 141.739 237.512 139.349 238.451 136.192C239.389 133.035 239.859 129.195 239.859 124.672C239.859 117.845 238.792 112.725 236.659 109.312C234.611 105.813 231.325 104.064 226.803 104.064ZM303.835 88.832C310.32 88.832 315.867 90.0693 320.475 92.544C325.168 95.0187 328.795 98.6027 331.355 103.296C333.915 107.989 335.195 113.749 335.195 120.576V129.792H290.139C290.309 135.168 291.888 139.392 294.875 142.464C297.947 145.536 302.171 147.072 307.547 147.072C312.069 147.072 316.165 146.645 319.835 145.792C323.504 144.853 327.301 143.445 331.227 141.568V156.288C327.813 157.995 324.187 159.232 320.347 160C316.592 160.853 312.027 161.28 306.651 161.28C299.653 161.28 293.467 160 288.091 157.44C282.715 154.795 278.491 150.827 275.419 145.536C272.347 140.245 270.811 133.589 270.811 125.568C270.811 117.376 272.176 110.592 274.907 105.216C277.723 99.7547 281.605 95.6587 286.555 92.928C291.504 90.1973 297.264 88.832 303.835 88.832ZM303.963 102.4C300.293 102.4 297.221 103.595 294.747 105.984C292.357 108.373 290.949 112.085 290.523 117.12H317.275C317.275 114.304 316.763 111.787 315.739 109.568C314.8 107.349 313.349 105.6 311.387 104.32C309.424 103.04 306.949 102.4 303.963 102.4ZM389.7 88.832C390.638 88.832 391.748 88.8747 393.028 88.96C394.308 89.0453 395.332 89.1733 396.1 89.344L394.692 107.264C394.094 107.093 393.198 106.965 392.004 106.88C390.894 106.709 389.913 106.624 389.06 106.624C386.585 106.624 384.196 106.965 381.892 107.648C379.588 108.245 377.497 109.227 375.62 110.592C373.828 111.957 372.377 113.792 371.268 116.096C370.244 118.315 369.732 121.088 369.732 124.416V160H350.66V90.112H365.124L367.94 101.888H368.836C370.201 99.4987 371.908 97.3227 373.956 95.36C376.004 93.3973 378.35 91.8187 380.996 90.624C383.726 89.4293 386.628 88.832 389.7 88.832ZM427.857 90.112V160H408.785V90.112H427.857ZM418.385 62.72C421.201 62.72 423.633 63.4027 425.681 64.768C427.729 66.048 428.753 68.48 428.753 72.064C428.753 75.5627 427.729 77.9947 425.681 79.36C423.633 80.7253 421.201 81.408 418.385 81.408C415.483 81.408 413.009 80.7253 410.961 79.36C408.998 77.9947 408.017 75.5627 408.017 72.064C408.017 68.48 408.998 66.048 410.961 64.768C413.009 63.4027 415.483 62.72 418.385 62.72ZM511.913 90.112V160H497.321L494.761 151.04H493.737C492.286 153.429 490.409 155.392 488.105 156.928C485.886 158.379 483.411 159.445 480.681 160.128C477.95 160.896 475.134 161.28 472.233 161.28C467.283 161.28 462.931 160.384 459.177 158.592C455.422 156.8 452.521 154.027 450.473 150.272C448.425 146.517 447.401 141.653 447.401 135.68V90.112H466.473V130.944C466.473 135.893 467.369 139.648 469.161 142.208C470.953 144.768 473.811 146.048 477.737 146.048C481.662 146.048 484.691 145.152 486.825 143.36C489.043 141.568 490.579 138.965 491.433 135.552C492.371 132.139 492.841 127.957 492.841 123.008V90.112H511.913ZM613.958 88.832C621.894 88.832 627.867 90.88 631.878 94.976C635.974 98.9867 638.022 105.472 638.022 114.432V160H618.95V119.168C618.95 114.133 618.096 110.379 616.39 107.904C614.683 105.344 612.038 104.064 608.454 104.064C603.419 104.064 599.835 105.856 597.702 109.44C595.568 113.024 594.502 118.187 594.502 124.928V160H575.43V119.168C575.43 115.84 575.046 113.067 574.278 110.848C573.51 108.629 572.358 106.965 570.822 105.856C569.286 104.661 567.323 104.064 564.934 104.064C561.435 104.064 558.662 104.96 556.614 106.752C554.566 108.544 553.115 111.147 552.262 114.56C551.408 117.973 550.982 122.155 550.982 127.104V160H531.91V90.112H546.502L549.062 99.072H550.086C551.536 96.6827 553.328 94.7627 555.462 93.312C557.595 91.776 559.942 90.6667 562.502 89.984C565.147 89.216 567.792 88.832 570.438 88.832C575.558 88.832 579.91 89.6853 583.494 91.392C587.078 93.0133 589.808 95.5733 591.686 99.072H593.35C595.483 95.488 598.427 92.8853 602.182 91.264C606.022 89.6427 609.947 88.832 613.958 88.832Z"
    fill="white"
  />
<path
    d="M467.172 178.344V198H461.808V178.344H467.172ZM464.508 170.64C465.3 170.64 465.984 170.832 466.56 171.216C467.136 171.576 467.424 172.26 467.424 173.268C467.424 174.252 467.136 174.936 466.56 175.32C465.984 175.704 465.3 175.896 464.508 175.896C463.692 175.896 462.996 175.704 462.42 175.32C461.868 174.936 461.592 174.252 461.592 173.268C461.592 172.26 461.868 171.576 462.42 171.216C462.996 170.832 463.692 170.64 464.508 170.64ZM483.937 177.984C486.049 177.984 487.741 178.56 489.013 179.712C490.285 180.84 490.921 182.664 490.921 185.184V198H485.557V186.516C485.557 185.1 485.305 184.044 484.801 183.348C484.297 182.628 483.493 182.268 482.389 182.268C480.757 182.268 479.641 182.832 479.041 183.96C478.441 185.064 478.141 186.66 478.141 188.748V198H472.777V178.344H476.881L477.601 180.864H477.889C478.321 180.192 478.849 179.652 479.473 179.244C480.097 178.812 480.793 178.5 481.561 178.308C482.329 178.092 483.121 177.984 483.937 177.984ZM502.665 198.36C500.481 198.36 498.693 197.508 497.301 195.804C495.933 194.076 495.249 191.544 495.249 188.208C495.249 184.848 495.945 182.304 497.337 180.576C498.729 178.848 500.553 177.984 502.809 177.984C503.745 177.984 504.573 178.116 505.293 178.38C506.013 178.62 506.625 178.956 507.129 179.388C507.657 179.82 508.101 180.312 508.461 180.864H508.641C508.569 180.48 508.485 179.928 508.389 179.208C508.293 178.464 508.245 177.708 508.245 176.94V170.64H513.609V198H509.505L508.461 195.444H508.245C507.909 195.972 507.477 196.464 506.949 196.92C506.445 197.352 505.845 197.7 505.149 197.964C504.453 198.228 503.625 198.36 502.665 198.36ZM504.537 194.076C506.025 194.076 507.069 193.644 507.669 192.78C508.269 191.892 508.581 190.572 508.605 188.82V188.244C508.605 186.324 508.305 184.86 507.705 183.852C507.129 182.844 506.049 182.34 504.465 182.34C503.289 182.34 502.365 182.856 501.693 183.888C501.021 184.896 500.685 186.36 500.685 188.28C500.685 190.2 501.021 191.652 501.693 192.636C502.365 193.596 503.313 194.076 504.537 194.076ZM537.254 178.344V198H533.15L532.43 195.48H532.142C531.734 196.152 531.206 196.704 530.558 197.136C529.934 197.544 529.238 197.844 528.47 198.036C527.702 198.252 526.91 198.36 526.094 198.36C524.702 198.36 523.478 198.108 522.422 197.604C521.366 197.1 520.55 196.32 519.974 195.264C519.398 194.208 519.11 192.84 519.11 191.16V178.344H524.474V189.828C524.474 191.22 524.726 192.276 525.23 192.996C525.734 193.716 526.538 194.076 527.642 194.076C528.746 194.076 529.598 193.824 530.198 193.32C530.822 192.816 531.254 192.084 531.494 191.124C531.758 190.164 531.89 188.988 531.89 187.596V178.344H537.254ZM556.594 192.168C556.594 193.488 556.282 194.616 555.658 195.552C555.034 196.464 554.098 197.16 552.85 197.64C551.602 198.12 550.054 198.36 548.206 198.36C546.838 198.36 545.662 198.264 544.678 198.072C543.694 197.904 542.71 197.616 541.726 197.208V192.78C542.782 193.26 543.922 193.656 545.146 193.968C546.37 194.28 547.45 194.436 548.386 194.436C549.442 194.436 550.186 194.28 550.618 193.968C551.074 193.656 551.302 193.248 551.302 192.744C551.302 192.408 551.206 192.108 551.014 191.844C550.846 191.58 550.462 191.28 549.862 190.944C549.262 190.608 548.326 190.176 547.054 189.648C545.83 189.12 544.822 188.604 544.03 188.1C543.238 187.572 542.65 186.948 542.266 186.228C541.882 185.484 541.69 184.56 541.69 183.456C541.69 181.632 542.398 180.264 543.814 179.352C545.23 178.44 547.114 177.984 549.466 177.984C550.69 177.984 551.854 178.104 552.958 178.344C554.062 178.584 555.202 178.98 556.378 179.532L554.758 183.384C554.11 183.096 553.486 182.844 552.886 182.628C552.286 182.412 551.698 182.244 551.122 182.124C550.57 182.004 549.994 181.944 549.394 181.944C548.602 181.944 548.002 182.052 547.594 182.268C547.21 182.484 547.018 182.808 547.018 183.24C547.018 183.552 547.114 183.84 547.306 184.104C547.522 184.344 547.918 184.608 548.494 184.896C549.094 185.184 549.97 185.568 551.122 186.048C552.25 186.504 553.222 186.984 554.038 187.488C554.854 187.968 555.478 188.58 555.91 189.324C556.366 190.044 556.594 190.992 556.594 192.168ZM569.053 194.076C569.653 194.076 570.229 194.016 570.781 193.896C571.333 193.776 571.885 193.632 572.437 193.464V197.46C571.861 197.7 571.141 197.904 570.277 198.072C569.437 198.264 568.513 198.36 567.505 198.36C566.329 198.36 565.273 198.168 564.337 197.784C563.425 197.4 562.693 196.74 562.141 195.804C561.613 194.844 561.349 193.524 561.349 191.844V182.376H558.793V180.108L561.745 178.308L563.293 174.168H566.713V178.344H572.221V182.376H566.713V191.844C566.713 192.588 566.929 193.152 567.361 193.536C567.793 193.896 568.357 194.076 569.053 194.076ZM587.362 177.984C587.626 177.984 587.938 177.996 588.298 178.02C588.658 178.044 588.946 178.08 589.162 178.128L588.766 183.168C588.598 183.12 588.346 183.084 588.01 183.06C587.698 183.012 587.422 182.988 587.182 182.988C586.486 182.988 585.814 183.084 585.166 183.276C584.518 183.444 583.93 183.72 583.402 184.104C582.898 184.488 582.49 185.004 582.178 185.652C581.89 186.276 581.746 187.056 581.746 187.992V198H576.382V178.344H580.45L581.242 181.656H581.494C581.878 180.984 582.358 180.372 582.934 179.82C583.51 179.268 584.17 178.824 584.914 178.488C585.682 178.152 586.498 177.984 587.362 177.984ZM598.094 178.344V198H592.73V178.344H598.094ZM595.43 170.64C596.222 170.64 596.906 170.832 597.482 171.216C598.058 171.576 598.346 172.26 598.346 173.268C598.346 174.252 598.058 174.936 597.482 175.32C596.906 175.704 596.222 175.896 595.43 175.896C594.614 175.896 593.918 175.704 593.342 175.32C592.79 174.936 592.514 174.252 592.514 173.268C592.514 172.26 592.79 171.576 593.342 171.216C593.918 170.832 594.614 170.64 595.43 170.64ZM611.799 177.984C613.623 177.984 615.183 178.332 616.479 179.028C617.799 179.724 618.819 180.732 619.539 182.052C620.259 183.372 620.619 184.992 620.619 186.912V189.504H607.947C607.995 191.016 608.439 192.204 609.279 193.068C610.143 193.932 611.331 194.364 612.843 194.364C614.115 194.364 615.267 194.244 616.299 194.004C617.331 193.74 618.399 193.344 619.503 192.816V196.956C618.543 197.436 617.523 197.784 616.443 198C615.387 198.24 614.103 198.36 612.591 198.36C610.623 198.36 608.883 198 607.371 197.28C605.859 196.536 604.671 195.42 603.807 193.932C602.943 192.444 602.511 190.572 602.511 188.316C602.511 186.012 602.895 184.104 603.663 182.592C604.455 181.056 605.547 179.904 606.939 179.136C608.331 178.368 609.951 177.984 611.799 177.984ZM611.835 181.8C610.803 181.8 609.939 182.136 609.243 182.808C608.571 183.48 608.175 184.524 608.055 185.94H615.579C615.579 185.148 615.435 184.44 615.147 183.816C614.883 183.192 614.475 182.7 613.923 182.34C613.371 181.98 612.675 181.8 611.835 181.8ZM638.684 192.168C638.684 193.488 638.372 194.616 637.748 195.552C637.124 196.464 636.188 197.16 634.94 197.64C633.692 198.12 632.144 198.36 630.296 198.36C628.928 198.36 627.752 198.264 626.768 198.072C625.784 197.904 624.8 197.616 623.816 197.208V192.78C624.872 193.26 626.012 193.656 627.236 193.968C628.46 194.28 629.54 194.436 630.476 194.436C631.532 194.436 632.276 194.28 632.708 193.968C633.164 193.656 633.392 193.248 633.392 192.744C633.392 192.408 633.296 192.108 633.104 191.844C632.936 191.58 632.552 191.28 631.952 190.944C631.352 190.608 630.416 190.176 629.144 189.648C627.92 189.12 626.912 188.604 626.12 188.1C625.328 187.572 624.74 186.948 624.356 186.228C623.972 185.484 623.78 184.56 623.78 183.456C623.78 181.632 624.488 180.264 625.904 179.352C627.32 178.44 629.204 177.984 631.556 177.984C632.78 177.984 633.944 178.104 635.048 178.344C636.152 178.584 637.292 178.98 638.468 179.532L636.848 183.384C636.2 183.096 635.576 182.844 634.976 182.628C634.376 182.412 633.788 182.244 633.212 182.124C632.66 182.004 632.084 181.944 631.484 181.944C630.692 181.944 630.092 182.052 629.684 182.268C629.3 182.484 629.108 182.808 629.108 183.24C629.108 183.552 629.204 183.84 629.396 184.104C629.612 184.344 630.008 184.608 630.584 184.896C631.184 185.184 632.06 185.568 633.212 186.048C634.34 186.504 635.312 186.984 636.128 187.488C636.944 187.968 637.568 188.58 638 189.324C638.456 190.044 638.684 190.992 638.684 192.168ZM461.44 216.04C462.053 214.88 463.013 214.3 464.32 214.3C465.56 214.3 466.493 214.773 467.12 215.72C467.693 216.613 467.98 217.767 467.98 219.18C467.98 221.207 467.453 222.653 466.4 223.52C465.88 223.947 465.24 224.173 464.48 224.2C463.733 224.24 463.133 224.107 462.68 223.8C462.187 223.52 461.8 223.113 461.52 222.58V223.82V227.24H460.22V214.5H461.36L461.44 216.04ZM464.16 215.28C463.307 215.28 462.667 215.54 462.24 216.06C461.853 216.513 461.627 217.153 461.56 217.98C461.52 218.313 461.5 218.72 461.5 219.2C461.5 221.893 462.393 223.24 464.18 223.24C464.94 223.24 465.54 222.88 465.98 222.16C466.433 221.44 466.66 220.447 466.66 219.18C466.66 218.007 466.433 217.067 465.98 216.36C465.527 215.64 464.92 215.28 464.16 215.28ZM475.844 222.92C474.777 223.787 473.644 224.22 472.444 224.22C471.63 224.22 470.964 224 470.444 223.56C469.937 223.12 469.684 222.507 469.684 221.72C469.684 221.133 469.857 220.607 470.204 220.14C470.43 219.833 470.897 219.533 471.604 219.24C472.004 219.093 472.677 218.933 473.624 218.76C473.784 218.72 474.19 218.653 474.844 218.56L475.764 218.44V218.04C475.764 217.013 475.597 216.307 475.264 215.92C474.93 215.52 474.35 215.32 473.524 215.32C472.39 215.32 471.504 215.72 470.864 216.52C470.864 216.507 470.597 216.253 470.064 215.76C470.837 214.787 472.017 214.3 473.604 214.3C475.924 214.3 477.084 215.447 477.084 217.74V224H475.984L475.844 222.92ZM475.764 219.3L474.844 219.46C473.844 219.633 473.13 219.767 472.704 219.86C472.157 220.007 471.717 220.213 471.384 220.48C471.077 220.72 470.924 221.073 470.924 221.54C470.924 222.727 471.51 223.32 472.684 223.32C473.67 223.32 474.697 222.867 475.764 221.96V219.3ZM482.062 223.42L478.422 214.5H479.782C479.902 214.807 480.075 215.26 480.302 215.86C480.342 215.953 480.515 216.4 480.822 217.2C481.128 218 481.382 218.647 481.582 219.14C481.782 219.647 482.015 220.253 482.282 220.96C482.562 221.653 482.708 222.013 482.722 222.04C483.868 219.107 484.848 216.593 485.662 214.5H486.962C486.748 215.06 486.135 216.593 485.122 219.1C484.242 221.273 483.708 222.607 483.522 223.1C483.162 224.073 482.775 224.88 482.362 225.52C481.962 226.16 481.442 226.58 480.802 226.78C480.468 226.9 480.095 226.96 479.682 226.96C479.348 226.96 479.015 226.92 478.682 226.84L478.842 225.78C479.095 225.833 479.368 225.86 479.662 225.86C480.688 225.86 481.415 225.247 481.842 224.02L482.062 223.42ZM489.662 214.5V216.28C489.836 215.88 490.082 215.533 490.402 215.24C490.722 214.947 491.062 214.747 491.422 214.64C491.742 214.547 492.096 214.5 492.482 214.5V215.7C491.456 215.7 490.729 216.047 490.302 216.74C489.902 217.367 489.702 218.14 489.702 219.06V224H488.382V214.5H489.662ZM495.432 216.54C495.059 217.287 494.872 218.187 494.872 219.24C494.872 220.093 494.992 220.84 495.232 221.48C495.472 222.213 495.899 222.72 496.512 223C496.832 223.16 497.199 223.24 497.612 223.24C498.425 223.24 499.059 222.96 499.512 222.4C499.912 221.907 500.165 221.247 500.272 220.42C500.325 220.1 500.352 219.707 500.352 219.24C500.352 218.427 500.232 217.687 499.992 217.02C499.725 216.287 499.299 215.78 498.712 215.5C498.352 215.353 497.985 215.28 497.612 215.28C496.572 215.28 495.845 215.7 495.432 216.54ZM500.572 215.6C501.319 216.453 501.692 217.667 501.692 219.24C501.692 220.813 501.325 222.04 500.592 222.92C499.872 223.787 498.879 224.22 497.612 224.22C496.345 224.22 495.345 223.787 494.612 222.92C493.892 222.053 493.532 220.833 493.532 219.26C493.532 217.673 493.899 216.453 494.632 215.6C495.365 214.733 496.359 214.3 497.612 214.3C498.852 214.3 499.839 214.733 500.572 215.6ZM503.795 224V210.32H505.115V224H503.795ZM507.701 224V210.32H509.021V224H507.701ZM517.027 224H515.727V214.5H516.987L517.027 216.02C517.694 214.873 518.7 214.3 520.047 214.3C521.447 214.3 522.334 214.96 522.707 216.28C523.014 215.64 523.447 215.153 524.007 214.82C524.58 214.473 525.214 214.3 525.907 214.3C526.867 214.3 527.594 214.62 528.087 215.26C528.487 215.78 528.727 216.5 528.807 217.42C528.834 217.927 528.847 218.34 528.847 218.66V224H527.547V218.38C527.547 217.433 527.414 216.687 527.147 216.14C526.854 215.567 526.36 215.28 525.667 215.28C525.16 215.28 524.694 215.44 524.267 215.76C523.84 216.067 523.507 216.473 523.267 216.98C523.04 217.5 522.927 218.007 522.927 218.5V224H521.607V218.38C521.607 217.34 521.46 216.567 521.167 216.06C520.887 215.54 520.42 215.28 519.767 215.28C519.234 215.28 518.754 215.44 518.327 215.76C517.914 216.067 517.594 216.48 517.367 217C517.14 217.52 517.027 218.047 517.027 218.58V224ZM536.977 222.92C535.91 223.787 534.777 224.22 533.577 224.22C532.763 224.22 532.097 224 531.577 223.56C531.07 223.12 530.817 222.507 530.817 221.72C530.817 221.133 530.99 220.607 531.337 220.14C531.563 219.833 532.03 219.533 532.737 219.24C533.137 219.093 533.81 218.933 534.757 218.76C534.917 218.72 535.323 218.653 535.977 218.56L536.897 218.44V218.04C536.897 217.013 536.73 216.307 536.397 215.92C536.063 215.52 535.483 215.32 534.657 215.32C533.523 215.32 532.637 215.72 531.997 216.52C531.997 216.507 531.73 216.253 531.197 215.76C531.97 214.787 533.15 214.3 534.737 214.3C537.057 214.3 538.217 215.447 538.217 217.74V224H537.117L536.977 222.92ZM536.897 219.3L535.977 219.46C534.977 219.633 534.263 219.767 533.837 219.86C533.29 220.007 532.85 220.213 532.517 220.48C532.21 220.72 532.057 221.073 532.057 221.54C532.057 222.727 532.643 223.32 533.817 223.32C534.803 223.32 535.83 222.867 536.897 221.96V219.3ZM540.61 224V214.5H541.89V214.8V215.38V216.04V216.3C542.143 215.62 542.61 215.107 543.29 214.76C543.93 214.453 544.57 214.3 545.21 214.3C545.93 214.3 546.516 214.44 546.97 214.72C547.436 215.013 547.756 215.353 547.93 215.74C548.13 216.207 548.263 216.667 548.33 217.12C548.356 217.493 548.37 217.733 548.37 217.84V218.58V224H547.07V218.42C547.07 217.673 546.99 217.04 546.83 216.52C546.656 216.027 546.336 215.693 545.87 215.52C545.643 215.427 545.356 215.38 545.01 215.38C544.09 215.38 543.383 215.627 542.89 216.12C542.463 216.547 542.17 217.2 542.01 218.08C541.943 218.507 541.91 218.933 541.91 219.36V224H540.61ZM556.508 222.92C555.441 223.787 554.308 224.22 553.108 224.22C552.294 224.22 551.628 224 551.108 223.56C550.601 223.12 550.348 222.507 550.348 221.72C550.348 221.133 550.521 220.607 550.868 220.14C551.094 219.833 551.561 219.533 552.268 219.24C552.668 219.093 553.341 218.933 554.288 218.76C554.448 218.72 554.854 218.653 555.508 218.56L556.428 218.44V218.04C556.428 217.013 556.261 216.307 555.928 215.92C555.594 215.52 555.014 215.32 554.188 215.32C553.054 215.32 552.168 215.72 551.528 216.52C551.528 216.507 551.261 216.253 550.728 215.76C551.501 214.787 552.681 214.3 554.268 214.3C556.588 214.3 557.748 215.447 557.748 217.74V224H556.648L556.508 222.92ZM556.428 219.3L555.508 219.46C554.508 219.633 553.794 219.767 553.368 219.86C552.821 220.007 552.381 220.213 552.048 220.48C551.741 220.72 551.588 221.073 551.588 221.54C551.588 222.727 552.174 223.32 553.348 223.32C554.334 223.32 555.361 222.867 556.428 221.96V219.3ZM560.481 226.48L561.261 225.74C561.754 226.553 562.641 226.96 563.921 226.96C565.668 226.96 566.541 225.887 566.541 223.74V222.8C565.821 223.747 564.868 224.22 563.681 224.22C562.468 224.22 561.521 223.76 560.841 222.84C560.174 221.92 559.841 220.68 559.841 219.12C559.841 217.173 560.408 215.78 561.541 214.94C562.128 214.513 562.821 214.3 563.621 214.3C564.848 214.3 565.861 214.78 566.661 215.74L566.741 214.5H567.781V223.82C567.781 225.073 567.434 226.08 566.741 226.84C566.048 227.6 565.081 227.98 563.841 227.98C562.201 227.98 561.081 227.48 560.481 226.48ZM566.541 218.96C566.541 217.747 566.321 216.853 565.881 216.28C565.508 215.787 565.041 215.48 564.481 215.36C564.268 215.307 564.028 215.28 563.761 215.28C562.868 215.28 562.201 215.673 561.761 216.46C561.348 217.167 561.141 218.04 561.141 219.08C561.141 220.4 561.368 221.427 561.821 222.16C562.288 222.88 562.921 223.24 563.721 223.24C564.294 223.24 564.808 223.093 565.261 222.8C565.768 222.48 566.134 221.867 566.361 220.96C566.481 220.48 566.541 219.913 566.541 219.26V218.96ZM576.401 218.46C576.374 216.34 575.528 215.28 573.861 215.28C573.008 215.28 572.368 215.593 571.941 216.22C571.514 216.807 571.261 217.553 571.181 218.46H576.401ZM576.781 215.6C577.368 216.427 577.661 217.487 577.661 218.78C577.661 219.033 577.654 219.213 577.641 219.32H571.161C571.161 220.453 571.374 221.367 571.801 222.06C572.268 222.847 572.981 223.24 573.941 223.24C575.181 223.24 575.981 222.693 576.341 221.6L577.361 221.84C577.214 222.347 576.961 222.787 576.601 223.16C576.254 223.533 575.854 223.8 575.401 223.96C574.988 224.107 574.514 224.193 573.981 224.22H573.941C572.528 224.22 571.474 223.713 570.781 222.7C570.141 221.793 569.821 220.64 569.821 219.24C569.821 217.747 570.181 216.553 570.901 215.66C571.634 214.753 572.634 214.3 573.901 214.3C575.194 214.3 576.154 214.733 576.781 215.6ZM580.953 224H579.653V214.5H580.913L580.953 216.02C581.619 214.873 582.626 214.3 583.973 214.3C585.373 214.3 586.259 214.96 586.633 216.28C586.939 215.64 587.373 215.153 587.933 214.82C588.506 214.473 589.139 214.3 589.833 214.3C590.793 214.3 591.519 214.62 592.013 215.26C592.413 215.78 592.653 216.5 592.733 217.42C592.759 217.927 592.773 218.34 592.773 218.66V224H591.473V218.38C591.473 217.433 591.339 216.687 591.073 216.14C590.779 215.567 590.286 215.28 589.593 215.28C589.086 215.28 588.619 215.44 588.193 215.76C587.766 216.067 587.433 216.473 587.193 216.98C586.966 217.5 586.853 218.007 586.853 218.5V224H585.533V218.38C585.533 217.34 585.386 216.567 585.093 216.06C584.813 215.54 584.346 215.28 583.693 215.28C583.159 215.28 582.679 215.44 582.253 215.76C581.839 216.067 581.519 216.48 581.293 217C581.066 217.52 580.953 218.047 580.953 218.58V224ZM601.342 218.46C601.316 216.34 600.469 215.28 598.802 215.28C597.949 215.28 597.309 215.593 596.882 216.22C596.456 216.807 596.202 217.553 596.122 218.46H601.342ZM601.722 215.6C602.309 216.427 602.602 217.487 602.602 218.78C602.602 219.033 602.596 219.213 602.582 219.32H596.102C596.102 220.453 596.316 221.367 596.742 222.06C597.209 222.847 597.922 223.24 598.882 223.24C600.122 223.24 600.922 222.693 601.282 221.6L602.302 221.84C602.156 222.347 601.902 222.787 601.542 223.16C601.196 223.533 600.796 223.8 600.342 223.96C599.929 224.107 599.456 224.193 598.922 224.22H598.882C597.469 224.22 596.416 223.713 595.722 222.7C595.082 221.793 594.762 220.64 594.762 219.24C594.762 217.747 595.122 216.553 595.842 215.66C596.576 214.753 597.576 214.3 598.842 214.3C600.136 214.3 601.096 214.733 601.722 215.6ZM604.594 224V214.5H605.874V214.8V215.38V216.04V216.3C606.127 215.62 606.594 215.107 607.274 214.76C607.914 214.453 608.554 214.3 609.194 214.3C609.914 214.3 610.501 214.44 610.954 214.72C611.421 215.013 611.741 215.353 611.914 215.74C612.114 216.207 612.247 216.667 612.314 217.12C612.341 217.493 612.354 217.733 612.354 217.84V218.58V224H611.054V218.42C611.054 217.673 610.974 217.04 610.814 216.52C610.641 216.027 610.321 215.693 609.854 215.52C609.627 215.427 609.341 215.38 608.994 215.38C608.074 215.38 607.367 215.627 606.874 216.12C606.447 216.547 606.154 217.2 605.994 218.08C605.927 218.507 605.894 218.933 605.894 219.36V224H604.594ZM619.232 223.7C618.766 224.007 618.219 224.16 617.592 224.16C616.766 224.16 616.166 223.913 615.792 223.42C615.432 222.913 615.252 222.1 615.252 220.98V215.44H613.852V214.5H615.352V211.48L616.592 211.14V214.5H618.652V215.44H616.592V221.58C616.592 222.633 617.019 223.16 617.872 223.16C618.152 223.16 618.526 223.053 618.992 222.84L619.232 223.7ZM630.529 216.66C630.156 215.753 629.362 215.3 628.149 215.3C626.589 215.3 625.809 215.853 625.809 216.96C625.809 217.36 625.962 217.687 626.269 217.94C626.509 218.167 626.916 218.333 627.489 218.44C627.702 218.507 627.969 218.567 628.289 218.62C629.396 218.82 630.209 219.133 630.729 219.56C631.249 219.973 631.509 220.567 631.509 221.34C631.509 223.26 630.256 224.22 627.749 224.22C626.949 224.22 626.249 224.06 625.649 223.74C624.956 223.367 624.489 222.753 624.249 221.9L625.249 221.52C625.476 222.12 625.789 222.553 626.189 222.82C626.602 223.087 627.169 223.22 627.889 223.22C629.502 223.22 630.309 222.68 630.309 221.6C630.309 221.013 630.122 220.593 629.749 220.34C629.376 220.1 628.596 219.86 627.409 219.62C626.809 219.487 626.256 219.293 625.749 219.04C625.282 218.827 624.942 218.447 624.729 217.9C624.622 217.607 624.569 217.287 624.569 216.94C624.569 216.127 624.889 215.487 625.529 215.02C626.169 214.54 627.016 214.3 628.069 214.3C628.936 214.3 629.629 214.447 630.149 214.74C630.682 215.02 631.109 215.493 631.429 216.16L630.529 216.66ZM636.202 223.42L632.562 214.5H633.922C634.042 214.807 634.216 215.26 634.442 215.86C634.482 215.953 634.656 216.4 634.962 217.2C635.269 218 635.522 218.647 635.722 219.14C635.922 219.647 636.156 220.253 636.422 220.96C636.702 221.653 636.849 222.013 636.862 222.04C638.009 219.107 638.989 216.593 639.802 214.5H641.102C640.889 215.06 640.276 216.593 639.262 219.1C638.382 221.273 637.849 222.607 637.662 223.1C637.302 224.073 636.916 224.88 636.502 225.52C636.102 226.16 635.582 226.58 634.942 226.78C634.609 226.9 634.236 226.96 633.822 226.96C633.489 226.96 633.156 226.92 632.822 226.84L632.982 225.78C633.236 225.833 633.509 225.86 633.802 225.86C634.829 225.86 635.556 225.247 635.982 224.02L636.202 223.42ZM648.283 216.66C647.909 215.753 647.116 215.3 645.903 215.3C644.343 215.3 643.563 215.853 643.563 216.96C643.563 217.36 643.716 217.687 644.023 217.94C644.263 218.167 644.669 218.333 645.243 218.44C645.456 218.507 645.723 218.567 646.043 218.62C647.149 218.82 647.963 219.133 648.483 219.56C649.003 219.973 649.263 220.567 649.263 221.34C649.263 223.26 648.009 224.22 645.503 224.22C644.703 224.22 644.003 224.06 643.403 223.74C642.709 223.367 642.243 222.753 642.003 221.9L643.003 221.52C643.229 222.12 643.543 222.553 643.943 222.82C644.356 223.087 644.923 223.22 645.643 223.22C647.256 223.22 648.063 222.68 648.063 221.6C648.063 221.013 647.876 220.593 647.503 220.34C647.129 220.1 646.349 219.86 645.163 219.62C644.563 219.487 644.009 219.293 643.503 219.04C643.036 218.827 642.696 218.447 642.483 217.9C642.376 217.607 642.323 217.287 642.323 216.94C642.323 216.127 642.643 215.487 643.283 215.02C643.923 214.54 644.769 214.3 645.823 214.3C646.689 214.3 647.383 214.447 647.903 214.74C648.436 215.02 648.863 215.493 649.183 216.16L648.283 216.66ZM655.736 223.7C655.269 224.007 654.723 224.16 654.096 224.16C653.269 224.16 652.669 223.913 652.296 223.42C651.936 222.913 651.756 222.1 651.756 220.98V215.44H650.356V214.5H651.856V211.48L653.096 211.14V214.5H655.156V215.44H653.096V221.58C653.096 222.633 653.523 223.16 654.376 223.16C654.656 223.16 655.029 223.053 655.496 222.84L655.736 223.7ZM663.393 218.46C663.366 216.34 662.52 215.28 660.853 215.28C660 215.28 659.36 215.593 658.933 216.22C658.506 216.807 658.253 217.553 658.173 218.46H663.393ZM663.773 215.6C664.36 216.427 664.653 217.487 664.653 218.78C664.653 219.033 664.646 219.213 664.633 219.32H658.153C658.153 220.453 658.366 221.367 658.793 222.06C659.26 222.847 659.973 223.24 660.933 223.24C662.173 223.24 662.973 222.693 663.333 221.6L664.353 221.84C664.206 222.347 663.953 222.787 663.593 223.16C663.246 223.533 662.846 223.8 662.393 223.96C661.98 224.107 661.506 224.193 660.973 224.22H660.933C659.52 224.22 658.466 223.713 657.773 222.7C657.133 221.793 656.813 220.64 656.813 219.24C656.813 217.747 657.173 216.553 657.893 215.66C658.626 214.753 659.626 214.3 660.893 214.3C662.186 214.3 663.146 214.733 663.773 215.6ZM667.945 224H666.645V214.5H667.905L667.945 216.02C668.612 214.873 669.618 214.3 670.965 214.3C672.365 214.3 673.252 214.96 673.625 216.28C673.932 215.64 674.365 215.153 674.925 214.82C675.498 214.473 676.132 214.3 676.825 214.3C677.785 214.3 678.512 214.62 679.005 215.26C679.405 215.78 679.645 216.5 679.725 217.42C679.752 217.927 679.765 218.34 679.765 218.66V224H678.465V218.38C678.465 217.433 678.332 216.687 678.065 216.14C677.772 215.567 677.278 215.28 676.585 215.28C676.078 215.28 675.612 215.44 675.185 215.76C674.758 216.067 674.425 216.473 674.185 216.98C673.958 217.5 673.845 218.007 673.845 218.5V224H672.525V218.38C672.525 217.34 672.378 216.567 672.085 216.06C671.805 215.54 671.338 215.28 670.685 215.28C670.152 215.28 669.672 215.44 669.245 215.76C668.832 216.067 668.512 216.48 668.285 217C668.058 217.52 667.945 218.047 667.945 218.58V224Z"
    fill="white"
  />
</svg>
